<?xml version="1.0" encoding="UTF-8"?>
<!DOCTYPE svg PUBLIC "-//W3C//DTD SVG 1.1//EN" "http://www.w3.org/Graphics/SVG/1.1/DTD/svg11.dtd">
<!-- Creator: CorelDRAW X6 -->
<svg xmlns="http://www.w3.org/2000/svg" xml:space="preserve" width="1070mm" height="500mm" version="1.1" style="shape-rendering:geometricPrecision; text-rendering:geometricPrecision; image-rendering:optimizeQuality; fill-rule:evenodd; clip-rule:evenodd"
viewBox="0 0 107000 50000"
 xmlns:xlink="http://www.w3.org/1999/xlink">
 <defs>
  <style type="text/css">
   <![CDATA[
    .fil0 {fill:#3A3985}
   ]]>
  </style>
 </defs>
 <g id="Camada_x0020_1">
  <metadata id="CorelCorpID_0Corel-Layer"/>
  <g id="_678935168">
   <path class="fil0" d="M30945 31153l0 -12132 9858 0 0 3289 -4661 0 0 1169 4228 0 0 3108 -4228 0 0 1276 4781 0 0 3290 -9978 0zm25596 0l-643 -4806c-41,-371 -83,-738 -121,-1106 -41,-368 -75,-738 -103,-1106 -58,348 -144,716 -254,1106 -110,387 -247,803 -409,1247l-1691 4665 -3152 0 -1691 -4665c-168,-444 -306,-860 -412,-1247 -107,-390 -193,-758 -251,-1106 -34,373 -69,744 -107,1109 -37,365 -75,732 -116,1103l-643 4806 -5197 0 2516 -12132 5468 0 1049 3001c31,93 82,235 151,421 443,1265 715,2306 814,3123l90 0c82,-512 202,-1061 364,-1640 162,-580 375,-1231 643,-1955l1100 -2950 5454 0 2337 12132 -5196 0zm11909 -3706c1196,-5 2069,-198 2622,-577 550,-376 825,-970 825,-1776 0,-789 -265,-1378 -791,-1765 -529,-388 -1337,-580 -2426,-580l-230 0 0 4698zm-5256 3706l0 -12132 4290 0c1361,0 2526,62 3488,186 963,125 1750,317 2351,577 1279,552 2255,1284 2939,2195 680,911 1021,1949 1021,3115 0,1162 -341,2195 -1018,3100 -677,905 -1656,1638 -2942,2195 -622,266 -1416,461 -2375,583 -959,122 -2248,181 -3856,181l-3898 0zm16312 0l0 -12132 9857 0 0 3289 -4660 0 0 1169 4227 0 0 3108 -4227 0 0 1276 4781 0 0 3290 -9978 0zm22969 -7318c-484,-382 -976,-668 -1481,-854 -502,-190 -1034,-283 -1591,-283 -866,0 -1564,221 -2090,659 -526,438 -790,1024 -790,1754 0,713 251,1281 756,1706 502,427 1179,639 2024,639 509,0 1028,-91 1554,-269 529,-181 1103,-464 1728,-857l-171 4566c-578,192 -1155,339 -1733,435 -577,96 -1154,145 -1732,145 -718,0 -1409,-65 -2072,-198 -667,-133 -1265,-323 -1805,-566 -1302,-617 -2285,-1401 -2952,-2345 -670,-945 -1004,-2028 -1004,-3256 0,-905 189,-1746 571,-2521 378,-772 931,-1454 1653,-2045 732,-597 1581,-1049 2543,-1355 966,-308 2007,-461 3128,-461 598,0 1186,51 1767,153 580,102 1148,254 1697,461l0 4492z"/>
   <path class="fil0" d="M4750 25040l11205 -11271 5407 5515 -13 11446 -5381 5501 -11218 -11191zm6614 1437l4498 4498 4498 -4498 -8996 0zm78 -2965l4498 -4498 4498 4498 -8996 0z"/>
   <g>
    <polygon class="fil0" points="23767,28385 27081,25072 23767,21758 "/>
    <path class="fil0" d="M4750 25040l11205 -11271 5407 5515 -13 11446 -5381 5501 -11218 -11191zm6614 1437l4498 4498 4498 -4498 -8996 0zm78 -2965l4498 -4498 4498 4498 -8996 0z"/>
   </g>
  </g>
 </g>
</svg>
