<svg id="Camada_1" data-name="Camada 1" xmlns="http://www.w3.org/2000/svg" viewBox="0 0 538.99 155.49"><defs><style>.cls-1{fill:#939598;}.cls-1,.cls-2,.cls-3{fill-rule:evenodd;}.cls-2{fill:#ce181e;}.cls-3{fill:#03428e;}</style></defs><title>emtu</title><polygon class="cls-1" points="252.46 49.45 202.67 49.45 202.67 69.94 252.46 69.94 252.46 85.89 202.67 85.89 202.67 106.86 252.46 106.86 252.46 122.75 185.46 122.75 185.46 33.56 252.46 33.56 252.46 49.45"/><polygon class="cls-1" points="356.32 33.56 356.32 122.87 339.05 122.87 339.05 62.2 316.98 89.92 312.26 89.92 289.94 62.15 289.94 122.87 272.73 122.87 272.73 33.56 287.87 33.56 314.64 66.6 341.3 33.56 356.32 33.56"/><polygon class="cls-1" points="446.62 33.44 446.62 49.33 417.28 49.33 417.28 122.87 400.01 122.87 400.01 49.33 371.16 49.33 371.16 33.44 446.62 33.44"/><path class="cls-1" d="M690.39,253.66V304c0,6.54-.48,11.71-1.55,15.36a33.4,33.4,0,0,1-3.79,8.91,28.42,28.42,0,0,1-5.56,6.42c-7.23,6.23-16.59,9.24-27.83,9.24-11.42,0-20.87-3-28.08-9.19a31.16,31.16,0,0,1-5.61-6.47,35.42,35.42,0,0,1-3.73-8.74c-1-3.53-1.42-8.82-1.42-15.65V253.66h17.27V304c0,9.58.35,17,9.54,21.67a26.27,26.27,0,0,0,11.9,2.49c6.68,0,11.87-1.73,15.81-5a14.73,14.73,0,0,0,4.37-6.05c.86-2.25,1.39-6.5,1.4-13.11V253.66Z" transform="translate(-151.4 -220.1)"/><path class="cls-2" d="M256.92,347.71h-.31q-1,0-2-.05l-1.08-.06-1-.08-1.25-.11-.63-.08q-1.18-.14-2.34-.34l-1.11-.2-1-.19-1.6-.37-.45-.11a48.55,48.55,0,0,1-15-6.69h0a50,50,0,0,1-.21-83.14,49.59,49.59,0,0,0-15-6.69l-.45-.11c-.53-.13-1.07-.25-1.6-.37l-1-.19-1.11-.2q-1.16-.2-2.34-.34l-.63-.08-1.25-.11-1-.08-1.08-.06c-.66,0-1.33,0-2-.05h-.22c-49.9,0-49.92,51-49.92,51A77.74,77.74,0,0,0,225,375.49l2.62.07c.48,0,1,0,1.44,0a77.73,77.73,0,0,0,77.64-75.81A49.85,49.85,0,0,1,256.92,347.71Z" transform="translate(-151.4 -220.1)"/><path class="cls-2" d="M151.45,295.91c0,.27,0,.54,0,.82v1.12h0C151.4,297.2,151.43,296.56,151.45,295.91Z" transform="translate(-151.4 -220.1)"/><path class="cls-3" d="M233.14,220.21c-.86,0-1.74-.05-2.62-.07-.48,0-1,0-1.44,0a77.73,77.73,0,0,0-77.64,75.81h0c0,.57,0,1.14,0,1.72,0,.07,0,.15,0,.22V299l0,0c0-1.66.86-50.94,49.92-50.94h.12l1.05,0,1.06,0h0l1.07.06h0l1,.08h0l1.36.13.53.07h0q1.5.18,3,.45l.48.09h0l.95.19h0c.54.12,1.07.24,1.6.37h0l.44.11h0q1.05.27,2.09.59l1,.33,1.14.39,1.1.41,1,.38,1.16.49.83.38,1.23.58.63.32a50,50,0,0,1,5,86q.8.54,1.62,1l.53.31,1.15.67.61.33,1.12.59.62.31,1.18.56.58.26,1.32.56.47.19q.8.31,1.61.6l.22.08q1.93.67,3.94,1.19h0l.42.1,1.6.37,1,.19,1.11.2q1.16.2,2.34.34h.1l.52.07,1.27.12,1,.08,1.09.06q1,0,2,.05h.31q1.27,0,2.52-.06l.93-.07c.52,0,1-.07,1.56-.12l1.08-.13c.46-.06.92-.1,1.37-.17l1.16-.2,1.25-.22,1.23-.28,1.13-.26c.44-.11.86-.24,1.29-.36l1-.29c.45-.14.9-.29,1.34-.44l.93-.31c.46-.17.92-.35,1.38-.53l.85-.33c.48-.2.95-.41,1.42-.62l.75-.33c.49-.23,1-.48,1.45-.72l.66-.33c.5-.27,1-.55,1.49-.83l.56-.32c.51-.3,1-.62,1.52-.95l.47-.3c.52-.34,1-.7,1.54-1.06l.39-.27c.52-.38,1-.78,1.54-1.18l.31-.24c.52-.42,1-.85,1.55-1.3l.24-.2c.52-.46,1-.94,1.54-1.42l.17-.16q.78-.75,1.52-1.53l.12-.12q.76-.81,1.49-1.66l.06-.07q.75-.87,1.45-1.77l0,0a49.65,49.65,0,0,0,10.51-28.74c0,.6-.06,1.19-.09,1.79q.1-1.3.13-2.61v-1.12A77.75,77.75,0,0,0,233.14,220.21Z" transform="translate(-151.4 -220.1)"/></svg>