<svg id="Camada_1" data-name="Camada 1" xmlns="http://www.w3.org/2000/svg" viewBox="0 0 551.97 110.18"><defs><style>.cls-1{fill:#ed1b2f;}.cls-2{fill:#fff;}</style></defs><title>scipopulis</title><path class="cls-1" d="M145,338.37V257.85a8.38,8.38,0,0,0,.29-1c.74-4.39,2.4-8.3,5.86-11.29a14.39,14.39,0,0,1,6-2.68h528a5.62,5.62,0,0,0,.76.27,11.29,11.29,0,0,1,6.2,3.48,17.75,17.75,0,0,1,4.85,12.29q.07,38.41,0,76.83a24.9,24.9,0,0,1-.77,6c-2,7.95-6.45,11.33-14.65,11.33q-261.66,0-523.31,0a10.49,10.49,0,0,1-6.5-2.18,15.92,15.92,0,0,1-5.71-8.78C145.64,340.87,145.33,339.62,145,338.37ZM420.76,247.8H157.83a5,5,0,0,0-3.5,1.51,14,14,0,0,0-4.38,10.3c0,3.64,0,7.28,0,10.92q0,32.72,0,65.44a15.56,15.56,0,0,0,.52,4.22c1.85,6.47,5.06,8.21,10.36,8.2q65.79-.15,131.58-.11,131.41,0,262.81.06H681.71c.44,0,.87,0,1.31,0a7.65,7.65,0,0,0,6.09-2.93A12.82,12.82,0,0,0,692,338c.17-4.66.21-9.33.21-14q0-32.24-.07-64.48a14.6,14.6,0,0,0-2.31-7.86,7.59,7.59,0,0,0-5.48-3.78,29.36,29.36,0,0,0-4-.1Z" transform="translate(-145 -242.89)"/><path class="cls-2" d="M420.76,247.8H680.37a29.36,29.36,0,0,1,4,.1,7.59,7.59,0,0,1,5.48,3.78,14.6,14.6,0,0,1,2.31,7.86q.06,32.24.07,64.48c0,4.67,0,9.34-.21,14a12.82,12.82,0,0,1-2.92,7.39,7.65,7.65,0,0,1-6.09,2.93c-.43,0-.87,0-1.31,0H555.24q-131.41,0-262.81-.06-65.79,0-131.58.11c-5.29,0-8.5-1.72-10.36-8.2A15.56,15.56,0,0,1,150,336q0-32.72,0-65.44c0-3.64,0-7.28,0-10.92a14,14,0,0,1,4.38-10.3,5,5,0,0,1,3.5-1.51H420.76ZM237,310a30.72,30.72,0,0,0,3.54,0c2.68-.33,3.53-1.8,2.62-4.33a8.64,8.64,0,0,0-.47-1.08c-1.3-2.48-2.72-4.91-3.88-7.46a21.92,21.92,0,0,1-1.65-5.25c-.37-2.13-.2-4.35-.57-6.48a26.41,26.41,0,0,0-24.61-22c-8.45-.47-16,2-21.78,8.44a27.55,27.55,0,0,0-6.94,22.05c.62,5.67,3.26,10.43,7,14.6a5,5,0,0,1,1.39,3.62c-.05,6.84,0,13.69,0,20.54,0,1.58,0,1.59,1.55,1.59H222c.46,0,.93,0,1.52-.07V325.8c.52,0,.9-.06,1.29-.06,2.14,0,4.28,0,6.41,0,3.6-.14,5.68-2.32,5.74-5.9,0-1.54,0-3.09,0-4.63S237,311.87,237,310Zm208.13-37.86c-9.85,0-17.09,5.21-20.12,14.6a35.72,35.72,0,0,0-.84,17.93c1.83,9.52,8.27,17.09,18.72,18.14,7.75.77,16.38-2.55,20.56-10.93,4-8,4.29-16.34,1.78-24.8C462.4,277.58,454.92,272.11,445.11,272.11Zm75.27,1c0,.48-.08.87-.08,1.25q0,11.34,0,22.67a52.2,52.2,0,0,0,1,12.26c1.52,6.34,4.89,11.13,11.49,12.7a31,31,0,0,0,8.93.65c6.87-.42,11.51-4.13,14-10.53a32.51,32.51,0,0,0,1.81-11.65c.06-8.67,0-17.33,0-26v-1.34H549v1.56c0,8.63,0,17.25,0,25.88a50.14,50.14,0,0,1-.39,5.91c-.61,4.89-3.46,7.85-8.1,8.57-5.41.84-9.3-1.69-10.44-7a39.2,39.2,0,0,1-.84-7.63c-.1-8.59,0-17.17,0-25.76,0-.5,0-1-.08-1.53Zm-35.25,48.63v-1.56c0-5,0-10,0-15.07,0-.95.29-1.19,1.21-1.2,3.56,0,7.13,0,10.67-.29,6.19-.54,11-3.3,13.41-9.34a17.74,17.74,0,0,0,.39-11.53,10.78,10.78,0,0,0-6.71-7.64,29.12,29.12,0,0,0-8.37-1.93c-6-.32-11.93-.16-17.9-.18a11.53,11.53,0,0,0-1.31.14v48.6Zm-94.65,0c0-.4,0-.67,0-.94q0-7.36,0-14.72c0-1.82.32-2.12,2.11-2.16,3.24-.06,6.5,0,9.72-.29,5.61-.47,10.18-2.81,12.9-8,2-3.92,2.06-8,1.08-12.24a11.71,11.71,0,0,0-6.58-8.21,20,20,0,0,0-8.68-2.09c-5.82-.06-11.64-.06-17.45-.07-.58,0-1.15.08-1.72.12v48.61Zm-117-6.08c.71.6,1.29,1.14,1.92,1.62s1.47,1.07,2.25,1.55c7.39,4.59,15.12,5.54,23.16,1.89a13.57,13.57,0,0,0,5.57-20.38c-1.77-2.52-4.33-4-7.08-5.19-3.87-1.7-7.75-3.37-11.6-5.12a4.71,4.71,0,0,1-3.09-5,5.06,5.06,0,0,1,3.89-4.69,12.71,12.71,0,0,1,9,.38c1.86.8,3.58,1.94,5.44,3l4.22-5.26c-.25-.3-.43-.56-.65-.78-5.64-5.74-16.54-7.34-23.59-3.46-6.65,3.66-9.16,11.23-5.84,17.62,1.82,3.48,4.9,5.49,8.35,7.06,3.67,1.67,7.31,3.37,11,5a5.08,5.08,0,0,1,3.34,5.21,5.47,5.47,0,0,1-4.08,5.36,12.19,12.19,0,0,1-9.57-.41c-2.35-1.13-4.64-2.38-6.94-3.59-.47-.25-.86-.5-1.33.07C276.51,312.23,275,313.89,273.52,315.66ZM654,283.87c1.28-1.6,2.45-3.14,3.71-4.6.59-.69.59-1.1-.08-1.75-5.82-5.68-16.69-7.15-23.76-3.17-6.83,3.85-9.1,12.08-5.06,18.43,1.88,3,4.72,4.71,7.82,6.12Q642.3,301.46,648,304a4.78,4.78,0,0,1,2.76,3.08,5.78,5.78,0,0,1-4.19,7.46,14.19,14.19,0,0,1-10.81-1.09c-2.06-1.05-4-2.36-6.1-3.62l-4.9,5.69c.27.28.44.49.64.67a24.57,24.57,0,0,0,15.87,6.55c5.38.24,10.26-.95,14.41-4.56a13.53,13.53,0,0,0,.72-19.23c-2.26-2.28-5.12-3.52-8-4.77-3.26-1.42-6.53-2.81-9.75-4.3a4.76,4.76,0,0,1-2.86-5c.38-2.63,1.66-4.06,4.08-4.59,4.92-1.08,9.42-.34,13.37,3C653.42,283.47,653.66,283.62,654,283.87ZM351.93,278c-1-.74-1.95-1.36-2.83-2-10.56-8-26.54-3.22-31.64,9.27a33.6,33.6,0,0,0-1.75,19,22.62,22.62,0,0,0,6.71,12.92c4.69,4.42,10.32,6,16.67,5.57a18.76,18.76,0,0,0,13.51-7.12l-4.85-5.29-1,1c-6.85,6.4-16.8,4.82-20.49-3.43a24,24,0,0,1,.5-21.63,11.85,11.85,0,0,1,15.82-5.29c1.32.63,2.56,1.41,3.88,2a1.18,1.18,0,0,0,1.08-.13C349,281.32,350.42,279.72,351.93,278Zm217.79-4.89c0,.37-.09.68-.09,1q0,23.27,0,46.53c0,.88.28,1.16,1.15,1.15,3.09,0,6.17,0,9.26,0,5.74,0,11.47,0,17.21,0,1,0,1.32-.28,1.27-1.27a38,38,0,0,1,0-4.51c.09-1.22-.33-1.53-1.52-1.52-5.5.06-11,0-16.5,0-2.19,0-2.26-.11-2.26-2.28q0-18.81,0-37.63v-1.48ZM369.35,321.7V273.18h-8.52V321.7Zm246.29,0V273.14h-8.49V321.7Z" transform="translate(-145 -242.89)"/><path class="cls-1" d="M237,310c0,1.89,0,3.54,0,5.2s0,3.09,0,4.63c-.05,3.58-2.14,5.76-5.74,5.9-2.13.08-4.27,0-6.41,0-.39,0-.77,0-1.29.06v8.29c-.6,0-1.06.07-1.52.07H193.18c-1.55,0-1.55,0-1.55-1.59,0-6.85,0-13.69,0-20.54a5,5,0,0,0-1.39-3.62c-3.77-4.17-6.41-8.93-7-14.6a27.55,27.55,0,0,1,6.94-22.05c5.74-6.48,13.33-8.91,21.78-8.44a26.41,26.41,0,0,1,24.61,22c.37,2.13.2,4.35.57,6.48a21.92,21.92,0,0,0,1.65,5.25c1.16,2.55,2.58,5,3.88,7.46a8.64,8.64,0,0,1,.47,1.08c.91,2.53.06,4-2.62,4.33A30.72,30.72,0,0,1,237,310Zm-23-14.75c-.28-.39-.7-1-1.13-1.57a1.84,1.84,0,0,1,.47-3,4.72,4.72,0,0,0,1-.62c.34-.4.83-1,.76-1.36A2.73,2.73,0,0,0,214,287.3c-.27-.22-.76-.17-1.15-.23a1.9,1.9,0,0,1-1.66-2.73,4.47,4.47,0,0,0,.46-1.21,1.92,1.92,0,0,0-.4-1.35,2.45,2.45,0,0,0-1.48-.42c-.3,0-.62.31-.92.5-1.75,1.09-2.88.66-3.46-1.32-.24-.82-.5-1.59-1.6-1.6s-1.37.69-1.63,1.54c-.63,2.06-1.78,2.49-3.54,1.33-.78-.51-1.51-.85-2.35-.1s-.47,1.4-.14,2.15c.78,1.76.36,2.65-1.49,3.15-.38.1-.86.06-1.14.28a3,3,0,0,0-1.08,1.35c-.24.89.47,1.27,1.19,1.64,1.91,1,2.11,2.12.74,3.76a2.68,2.68,0,0,1-.23.27,1.28,1.28,0,0,0-.36,1.85,1.4,1.4,0,0,0,1.88.72,3.69,3.69,0,0,1,.58-.1c1.69-.33,2.47.26,2.54,2,0,1-.16,2.11,1.16,2.56s1.62-.66,2.21-1.33a2,2,0,0,1,3.32.07c.15.19.23.47.42.57.56.27,1.23.75,1.71.61s.83-.89,1.12-1.43c.15-.28,0-.7,0-1.05.13-1.78.95-2.37,2.69-2l.69.17C213.08,297.18,213.9,296.54,214,295.22Zm5.31-5.65a11.7,11.7,0,0,0,1.39-1.27,4.42,4.42,0,0,0,.41-1.1c.54-1.39,1-1.62,2.43-1.36a4,4,0,0,0,1,.16,1.92,1.92,0,0,0,1.09-.38,1.67,1.67,0,0,0,0-2.35c-1.32-1.93-1.34-2,.1-3.8a1.58,1.58,0,0,0,.15-2c-.46-.72-1.08-.65-1.78-.5-2.17.47-2.68.2-3.3-1.88-.24-.82-.6-1.34-1.52-1.33s-1.27.57-1.48,1.38c-.5,1.91-1.29,2.38-3.21,1.88-.83-.22-1.46-.19-1.94.59s-.13,1.46.47,2.08c1.35,1.4,1.35,2.23,0,3.64-.56.58-1,1.12-.48,2a1.53,1.53,0,0,0,1.89.73c2.22-.46,2.6-.13,3.38,2C218.12,288.51,218.71,288.93,219.26,289.57Z" transform="translate(-145 -242.89)"/><path class="cls-1" d="M445.11,272.11c9.81,0,17.29,5.47,20.1,14.94,2.51,8.46,2.2,16.82-1.78,24.8-4.18,8.38-12.8,11.7-20.56,10.93-10.46-1-16.89-8.61-18.72-18.14a35.72,35.72,0,0,1,.84-17.93C428,277.32,435.26,272.11,445.11,272.11ZM457.59,297a23.32,23.32,0,0,0-2.29-10.8,10.88,10.88,0,0,0-10.21-6.52c-4.53-.09-7.85,2-10,6a21.43,21.43,0,0,0-2.54,9.77c-.2,4.72.25,9.32,2.57,13.57a10.8,10.8,0,0,0,10.32,6.11c4.54-.1,7.59-2.5,9.67-6.38C457,305.08,457.47,301.1,457.59,297Z" transform="translate(-145 -242.89)"/><path class="cls-1" d="M520.38,273.11h8.68c0,.54.08,1,.08,1.53,0,8.59-.06,17.17,0,25.76A39.2,39.2,0,0,0,530,308c1.13,5.34,5,7.86,10.44,7,4.65-.72,7.5-3.68,8.1-8.57a50.14,50.14,0,0,0,.39-5.91c0-8.63,0-17.25,0-25.88v-1.56h8.54v1.34c0,8.67,0,17.33,0,26a32.51,32.51,0,0,1-1.81,11.65c-2.47,6.4-7.11,10.11-14,10.53a31,31,0,0,1-8.93-.65c-6.61-1.57-10-6.36-11.49-12.7a52.2,52.2,0,0,1-1-12.26q0-11.34,0-22.67C520.29,274,520.34,273.59,520.38,273.11Z" transform="translate(-145 -242.89)"/><path class="cls-1" d="M485.12,321.74H476.5v-48.6a11.53,11.53,0,0,1,1.31-.14c6,0,11.95-.13,17.9.18a29.12,29.12,0,0,1,8.37,1.93,10.78,10.78,0,0,1,6.71,7.64,17.74,17.74,0,0,1-.39,11.53c-2.38,6-7.22,8.8-13.41,9.34-3.54.31-7.11.25-10.67.29-.93,0-1.22.26-1.21,1.2,0,5,0,10,0,15.07Zm.17-25c3.43,0,6.69.24,9.9-.06,4.49-.42,6.72-2.61,7.46-6.67a17.63,17.63,0,0,0,.2-2.12c.23-4-1.73-6.81-5.69-7.28s-7.73-.33-11.59-.46c-.06,0-.12.09-.27.21v16.37Z" transform="translate(-145 -242.89)"/><path class="cls-1" d="M390.48,321.73h-8.58V273.12c.57,0,1.14-.13,1.72-.12,5.82,0,11.64,0,17.45.07a20,20,0,0,1,8.68,2.09,11.71,11.71,0,0,1,6.58,8.21c1,4.2,1,8.33-1.08,12.24-2.71,5.19-7.29,7.53-12.9,8-3.23.27-6.48.23-9.72.29-1.79,0-2.11.34-2.11,2.16q0,7.36,0,14.72C390.52,321.06,390.5,321.33,390.48,321.73Zm.08-24.92c3.37,0,6.61.17,9.82,0,4.14-.28,6.63-2.25,7.45-5.63a16.34,16.34,0,0,0,.39-3.87c0-3.57-1.88-6.14-5.39-6.57-3.82-.48-7.71-.4-11.58-.51-.23,0-.67.53-.67.82C390.55,286.21,390.56,291.43,390.56,296.81Z" transform="translate(-145 -242.89)"/><path class="cls-1" d="M273.52,315.66c1.53-1.77,3-3.43,4.41-5.13.47-.57.86-.31,1.33-.07,2.31,1.21,4.6,2.46,6.94,3.59a12.19,12.19,0,0,0,9.57.41,5.47,5.47,0,0,0,4.08-5.36,5.08,5.08,0,0,0-3.34-5.21c-3.68-1.63-7.33-3.34-11-5-3.45-1.57-6.53-3.57-8.35-7.06-3.33-6.39-.82-14,5.84-17.62,7.05-3.88,18-2.29,23.59,3.46.22.22.4.48.65.78L303,283.71c-1.87-1-3.58-2.17-5.44-3a12.71,12.71,0,0,0-9-.38,5.06,5.06,0,0,0-3.89,4.69,4.71,4.71,0,0,0,3.09,5c3.84,1.75,7.73,3.42,11.6,5.12,2.75,1.21,5.31,2.68,7.08,5.19a13.57,13.57,0,0,1-5.57,20.38c-8,3.65-15.76,2.7-23.16-1.89-.77-.48-1.52-1-2.25-1.55S274.23,316.26,273.52,315.66Z" transform="translate(-145 -242.89)"/><path class="cls-1" d="M654,283.87c-.35-.25-.58-.39-.79-.57-3.95-3.29-8.45-4-13.37-3-2.42.53-3.7,2-4.08,4.59a4.76,4.76,0,0,0,2.86,5c3.22,1.49,6.49,2.88,9.75,4.3,2.86,1.25,5.72,2.49,8,4.77a13.53,13.53,0,0,1-.72,19.23c-4.15,3.62-9,4.8-14.41,4.56a24.57,24.57,0,0,1-15.87-6.55c-.2-.18-.38-.39-.64-.67l4.9-5.69c2.1,1.26,4,2.56,6.1,3.62a14.19,14.19,0,0,0,10.81,1.09,5.78,5.78,0,0,0,4.19-7.46A4.78,4.78,0,0,0,648,304q-5.65-2.59-11.32-5.15c-3.1-1.41-5.94-3.16-7.82-6.12-4-6.34-1.77-14.58,5.06-18.43,7.07-4,17.94-2.51,23.76,3.17.67.65.67,1.06.08,1.75C656.46,280.72,655.29,282.27,654,283.87Z" transform="translate(-145 -242.89)"/><path class="cls-1" d="M351.93,278c-1.51,1.67-2.92,3.27-4.39,4.81a1.18,1.18,0,0,1-1.08.13c-1.32-.63-2.56-1.41-3.88-2a11.85,11.85,0,0,0-15.82,5.29,24,24,0,0,0-.5,21.63c3.68,8.25,13.63,9.83,20.49,3.43l1-1,4.85,5.29a18.76,18.76,0,0,1-13.51,7.12c-6.35.47-12-1.14-16.67-5.57a22.62,22.62,0,0,1-6.71-12.92,33.6,33.6,0,0,1,1.75-19c5.09-12.49,21.08-17.3,31.64-9.27C350,276.69,350.9,277.31,351.93,278Z" transform="translate(-145 -242.89)"/><path class="cls-1" d="M569.72,273.16h8.51v1.48q0,18.81,0,37.63c0,2.17.08,2.28,2.26,2.28,5.5,0,11,0,16.5,0,1.19,0,1.61.3,1.52,1.52a38,38,0,0,0,0,4.51c0,1-.29,1.28-1.27,1.27-5.74,0-11.47,0-17.21,0-3.09,0-6.17,0-9.26,0-.88,0-1.16-.26-1.15-1.15q0-23.27,0-46.53C569.63,273.84,569.68,273.53,569.72,273.16Z" transform="translate(-145 -242.89)"/><path class="cls-1" d="M369.35,321.7h-8.52V273.18h8.52Z" transform="translate(-145 -242.89)"/><path class="cls-1" d="M615.64,321.7h-8.49V273.14h8.49Z" transform="translate(-145 -242.89)"/><path class="cls-2" d="M214,295.22c0,1.32-.88,2-1.87,1.76l-.69-.17c-1.74-.41-2.55.18-2.69,2,0,.35.11.77,0,1.05-.29.54-.64,1.29-1.12,1.43s-1.15-.34-1.71-.61c-.19-.09-.27-.38-.42-.57a2,2,0,0,0-3.32-.07c-.59.67-.93,1.77-2.21,1.33s-1.11-1.55-1.16-2.56c-.08-1.72-.86-2.32-2.54-2a3.69,3.69,0,0,0-.58.1,1.4,1.4,0,0,1-1.88-.72,1.28,1.28,0,0,1,.36-1.85,2.68,2.68,0,0,0,.23-.27c1.38-1.65,1.18-2.79-.74-3.76-.72-.37-1.43-.75-1.19-1.64a3,3,0,0,1,1.08-1.35c.27-.22.76-.18,1.14-.28,1.85-.51,2.27-1.39,1.49-3.15-.33-.75-.63-1.45.14-2.15s1.57-.42,2.35.1c1.76,1.16,2.91.73,3.54-1.33.26-.85.56-1.55,1.63-1.54s1.36.77,1.6,1.6c.58,2,1.72,2.42,3.46,1.32.3-.19.62-.51.92-.5a2.45,2.45,0,0,1,1.48.42,1.92,1.92,0,0,1,.4,1.35,4.47,4.47,0,0,1-.46,1.21,1.9,1.9,0,0,0,1.66,2.73c.39.06.88,0,1.15.23a2.73,2.73,0,0,1,1.07,1.37c.07.4-.41,1-.76,1.36a4.72,4.72,0,0,1-1,.62,1.84,1.84,0,0,0-.47,3C213.26,294.23,213.67,294.83,214,295.22Zm-10.2-7.4a2.61,2.61,0,0,0-2.68,2.56,2.73,2.73,0,0,0,2.62,2.79,2.64,2.64,0,0,0,2.65-2.72A2.52,2.52,0,0,0,203.76,287.82Z" transform="translate(-145 -242.89)"/><path class="cls-2" d="M219.26,289.57c-.55-.64-1.15-1.06-1.35-1.63-.78-2.11-1.16-2.43-3.38-2a1.53,1.53,0,0,1-1.89-.73c-.51-.84-.08-1.38.48-2,1.36-1.41,1.36-2.24,0-3.64-.6-.62-1-1.22-.47-2.08s1.12-.81,1.94-.59c1.93.51,2.71,0,3.21-1.88.21-.81.54-1.37,1.48-1.38s1.28.51,1.52,1.33c.62,2.08,1.13,2.35,3.3,1.88.69-.15,1.32-.22,1.78.5a1.58,1.58,0,0,1-.15,2c-1.44,1.84-1.42,1.87-.1,3.8a1.67,1.67,0,0,1,0,2.35,1.92,1.92,0,0,1-1.09.38,4,4,0,0,1-1-.16c-1.47-.26-1.89,0-2.43,1.36a4.42,4.42,0,0,1-.41,1.1A11.7,11.7,0,0,1,219.26,289.57Zm.06-6.32a1.73,1.73,0,0,0,1.85-1.73,1.84,1.84,0,1,0-3.67,0A1.78,1.78,0,0,0,219.32,283.25Z" transform="translate(-145 -242.89)"/><path class="cls-2" d="M457.59,297c-.11,4.06-.55,8-2.52,11.71-2.08,3.88-5.13,6.28-9.67,6.38A10.8,10.8,0,0,1,435.07,309c-2.32-4.24-2.77-8.84-2.57-13.57a21.43,21.43,0,0,1,2.54-9.77c2.2-3.92,5.52-6.05,10-6a10.88,10.88,0,0,1,10.21,6.52A23.3,23.3,0,0,1,457.59,297Z" transform="translate(-145 -242.89)"/><path class="cls-2" d="M485.3,296.78V280.4c.15-.12.21-.21.27-.21,3.87.12,7.76,0,11.59.46s5.92,3.29,5.69,7.28a17.63,17.63,0,0,1-.2,2.12c-.74,4.06-3,6.25-7.46,6.67C492,297,488.72,296.78,485.3,296.78Z" transform="translate(-145 -242.89)"/><path class="cls-2" d="M390.56,296.81c0-5.38,0-10.59,0-15.81,0-.29.45-.82.67-.82,3.86.11,7.76,0,11.58.51,3.5.44,5.38,3,5.39,6.57a16.34,16.34,0,0,1-.39,3.87c-.82,3.38-3.31,5.35-7.45,5.63C397.16,297,393.92,296.81,390.56,296.81Z" transform="translate(-145 -242.89)"/><path class="cls-1" d="M203.76,287.82a2.52,2.52,0,0,1,2.58,2.62,2.64,2.64,0,0,1-2.65,2.72,2.73,2.73,0,0,1-2.62-2.79A2.61,2.61,0,0,1,203.76,287.82Z" transform="translate(-145 -242.89)"/><path class="cls-1" d="M219.32,283.25a1.78,1.78,0,0,1-1.82-1.78,1.84,1.84,0,1,1,3.67,0A1.73,1.73,0,0,1,219.32,283.25Z" transform="translate(-145 -242.89)"/></svg>