<svg id="Camada_1" data-name="Camada 1" xmlns="http://www.w3.org/2000/svg" viewBox="0 0 355.71 399.11"><defs><style>.cls-1,.cls-3{fill:#231f20;}.cls-1,.cls-2{fill-rule:evenodd;}.cls-2{fill:#ed1c24;}</style></defs><title>unicamp</title><path class="cls-1" d="M406.23,229.45V101.55a182,182,0,0,1,43.88,6.38,22.88,22.88,0,0,0,9.56,22.6L417.33,231.79A53.54,53.54,0,0,0,406.23,229.45Z" transform="translate(-243.15 -98.09)"/><path class="cls-1" d="M395.07,229.45V101.73A154.86,154.86,0,0,0,337,116.3l47.36,115.37A48.82,48.82,0,0,1,395.07,229.45Z" transform="translate(-243.15 -98.09)"/><path class="cls-1" d="M375.75,234.88,328.63,120.13A168.94,168.94,0,0,0,280.53,157l84.81,84.81A56.25,56.25,0,0,1,375.75,234.88Z" transform="translate(-243.15 -98.09)"/><path class="cls-1" d="M274.66,164a148,148,0,0,0-27.78,50.32l105.41,44.11A51.83,51.83,0,0,1,359,248.32Z" transform="translate(-243.15 -98.09)"/><path class="cls-1" d="M348.59,266.87,244.66,223.39A183,183,0,0,0,246,279.11H346.15A56.15,56.15,0,0,1,348.59,266.87Z" transform="translate(-243.15 -98.09)"/><path class="cls-1" d="M346.18,288.3H248.62a215.91,215.91,0,0,0,22.82,43.54l77.07-31.65A56.41,56.41,0,0,1,346.18,288.3Z" transform="translate(-243.15 -98.09)"/><path class="cls-1" d="M359.16,318.48a51.09,51.09,0,0,1-6.94-10.42l-74.39,30.51a200.66,200.66,0,0,0,34.09,27.15Z" transform="translate(-243.15 -98.09)"/><path class="cls-1" d="M418.31,386.68a22.93,22.93,0,0,1,10.47-22.2L417,335.34a54.57,54.57,0,0,1-51.45-10.47L320,370.4A156.26,156.26,0,0,0,418.31,386.68Z" transform="translate(-243.15 -98.09)"/><path class="cls-1" d="M424.95,332.06l11.84,29.37A22.82,22.82,0,0,1,460,371.9q7.6-3.59,15-7.51L435.65,325A52.75,52.75,0,0,1,424.95,332.06Z" transform="translate(-243.15 -98.09)"/><path class="cls-1" d="M566.48,299.77a23.07,23.07,0,0,1-6.49-12H454.75a54.61,54.61,0,0,1-12.69,30.74l41.27,41.27A433.22,433.22,0,0,0,566.48,299.77Z" transform="translate(-243.15 -98.09)"/><path class="cls-1" d="M507,141a173.36,173.36,0,0,1,13.89,15.71l-85.38,85.38a56.43,56.43,0,0,0-10.07-6.72l42.35-101.26a22.8,22.8,0,0,0,21.4-7.11A156.69,156.69,0,0,1,507,141Z" transform="translate(-243.15 -98.09)"/><path class="cls-2" d="M440.47,370.3a13.77,13.77,0,1,0,13.72,13.77A13.77,13.77,0,0,0,440.47,370.3Z" transform="translate(-243.15 -98.09)"/><path class="cls-2" d="M585.08,267.69a13.77,13.77,0,1,0,13.78,13.78A13.8,13.8,0,0,0,585.08,267.69Z" transform="translate(-243.15 -98.09)"/><path class="cls-2" d="M472.22,98.09A13.77,13.77,0,1,0,486,111.86,13.8,13.8,0,0,0,472.22,98.09Z" transform="translate(-243.15 -98.09)"/><polygon class="cls-1" points="57.46 399.05 57.46 362.9 72.94 362.9 94 387.83 94 363.13 104.81 363.13 104.81 399.05 88.31 399.05 68.04 375.37 68.04 399.05 57.46 399.05"/><rect class="cls-3" x="113.89" y="362.62" width="10.13" height="36.43"/><path class="cls-1" d="M407.74,483.86h10.07v4.84a8.47,8.47,0,0,1-9.33,8.42H387.54A10.18,10.18,0,0,1,377.41,488V469.8a9.19,9.19,0,0,1,10.13-9.11h20.95a9.44,9.44,0,0,1,9.39,8.42V474H407.74a4.32,4.32,0,0,0-4.55-4.21H392.6a4.83,4.83,0,0,0-5.07,4.55v9.11A4.79,4.79,0,0,0,392.6,488h10.59A4.34,4.34,0,0,0,407.74,483.86Z" transform="translate(-243.15 -98.09)"/><path class="cls-1" d="M438.22,491.4l-2.49,5.8H425l14.91-36h16.57l15.33,36h-11.6l-1.66-5.8Zm16.16-8.7-6.21-15.33L442,482.7Z" transform="translate(-243.15 -98.09)"/><polygon class="cls-1" points="247.28 378.22 247.28 398.88 237.15 398.88 237.15 362.46 248.81 362.46 267.09 390.86 284.11 362.46 295.6 362.46 295.6 398.88 285.47 398.88 285.47 379.36 273.75 398.88 260.54 398.88 247.28 378.22"/><path class="cls-1" d="M548.07,497.13V460.26H580c5,0,8.7,4.14,9.53,9.11v9.94a9.93,9.93,0,0,1-9.53,9.53H558.84v8.28Zm10.77-18.23H575c6.21,0,6.21-9.11,0-9.11H558.84Z" transform="translate(-243.15 -98.09)"/><path class="cls-1" d="M256.25,483.25V460.48H246.12V488.2a8.71,8.71,0,0,0,8.71,8.71h28.4a8.67,8.67,0,0,0,8.71-8.71V460.77H281.8v22.48a4.57,4.57,0,0,1-4.55,4.55H260.8A4.57,4.57,0,0,1,256.25,483.25Z" transform="translate(-243.15 -98.09)"/><path class="cls-1" d="M552.9,216.17Q545.22,198,536,180.49q-4.7-8.28-9.9-16.22l-84.18,84.18a56.93,56.93,0,0,1,6.89,10.42Z" transform="translate(-243.15 -98.09)"/><path class="cls-1" d="M556.52,224.62c5.07,13.15,9.68,26.52,13.66,40.07a23,23,0,0,0-10.08,14.46H454.81a53,53,0,0,0-2.33-11.9Z" transform="translate(-243.15 -98.09)"/></svg>