<?xml version="1.0" encoding="utf-8"?>
<!-- Generator: Adobe Illustrator 21.1.0, SVG Export Plug-In . SVG Version: 6.00 Build 0)  -->
<svg version="1.1" id="Layer_1" xmlns="http://www.w3.org/2000/svg" xmlns:xlink="http://www.w3.org/1999/xlink" x="0px" y="0px"
	 viewBox="0 0 841.9 1190.6" style="enable-background:new 0 0 841.9 1190.6;" xml:space="preserve">
<style type="text/css">
	.st0{opacity:0.8;}
	.st1{clip-path:url(#SVGID_2_);}
	.st2{opacity:0.1;}
	.st3{fill:#FFFFFF;}
	.st4{opacity:0.2;}
	.st5{clip-path:url(#SVGID_4_);}
	.st6{opacity:0.15;}
	.st7{fill:url(#SVGID_5_);}
	.st8{fill:url(#SVGID_6_);}
	.st9{fill:#706F6F;}
</style>
<g class="st0">
	<defs>
		<rect id="SVGID_1_" x="415.3" y="344.6" class="st0" width="488.3" height="488.3"/>
	</defs>
	<clipPath id="SVGID_2_">
		<use xlink:href="#SVGID_1_"  style="overflow:visible;"/>
	</clipPath>
	<g class="st1">
		<g class="st2">
			<g>
				<polygon class="st3" points="503.9,450.4 536.8,450.4 536.8,448.4 504.7,448.4 477.6,420.5 417.4,420.5 405.9,409.1 
					353.6,409.1 322.8,439.8 324.2,441.2 354.4,411.1 405,411.1 416.5,422.6 476.8,422.6 				"/>
			</g>
			<g>
				<polygon class="st3" points="324.9,492.2 380,492.2 418.7,453.5 458.2,453.5 495.1,490.3 622.5,490.3 652.3,460.5 694.6,460.5 
					694.6,458.5 651.5,458.5 621.7,488.3 495.9,488.3 459,451.4 417.9,451.4 379.1,490.1 324.9,490.1 				"/>
			</g>
			<g>
				<polygon class="st3" points="617.7,519.1 704.2,519.1 719.4,503.9 781.9,503.9 781.9,501.8 718.5,501.8 703.3,517.1 
					618.5,517.1 566.5,465.1 487.1,465.1 451,428.9 354.9,428.9 338.8,445.1 322.8,445.1 322.8,447.1 339.6,447.1 355.8,431 
					450.1,431 486.3,467.1 565.7,467.1 				"/>
			</g>
			<g>
				<polygon class="st3" points="436.6,641 471.8,641 508.1,604.7 554.1,604.7 656.4,502.5 693.9,502.5 693.9,500.5 655.5,500.5 
					553.3,602.7 507.2,602.7 471,638.9 436.6,638.9 				"/>
			</g>
			<g>
				<polygon class="st3" points="393.1,527.6 444.6,527.6 465.2,506.9 578.1,506.9 578.1,502.9 463.5,502.9 442.9,523.5 
					394.7,523.5 368.6,497.3 322.8,497.3 322.8,501.3 366.8,501.3 				"/>
			</g>
			<g>
				<polygon class="st3" points="482.9,565.5 564.5,565.5 564.5,563.5 483.7,563.5 458.3,538 370,538 353.6,521.6 319.4,521.6 
					319.4,523.7 352.7,523.7 369.1,540.1 457.5,540.1 				"/>
			</g>
			<g>
				<polygon class="st3" points="424.9,603 461.1,603 538.3,525.7 588.3,525.7 625.3,562.8 746.9,562.8 767.5,583.4 796.8,583.4 
					796.8,579.3 769.2,579.3 748.5,558.7 627,558.7 590,521.6 536.6,521.6 459.4,598.9 426.6,598.9 410.1,582.4 320.1,582.4 
					320.1,586.4 408.4,586.4 				"/>
			</g>
			<g>
				<polygon class="st3" points="471.6,593.2 605,593.2 666.3,532 737.2,532 737.2,527.9 664.6,527.9 603.4,589.2 473.4,589.2 
					444.7,560.6 322.8,560.6 322.8,564.7 443,564.7 				"/>
			</g>
			<g>
				<polygon class="st3" points="751.7,607.5 796.8,607.5 796.8,605.5 752.5,605.5 722.4,575.3 635.7,575.3 635.7,577.3 
					721.6,577.3 				"/>
			</g>
			<g>
				<polygon class="st3" points="352.2,690.7 507.4,690.7 551.4,646.8 630.7,646.8 661.8,615.6 693.2,615.6 693.2,613.6 
					660.9,613.6 629.8,644.7 550.6,644.7 506.6,688.7 353,688.7 325.3,661 315.4,661 315.4,663 324.4,663 				"/>
			</g>
			<g>
				<polygon class="st3" points="377.9,744.9 508.8,744.9 522.3,731.4 593.4,731.4 686.2,638.6 811.3,638.6 829.9,657.3 
					831.4,655.8 812.1,636.6 685.4,636.6 592.6,729.3 521.5,729.3 508,742.9 378.8,742.9 368.6,732.7 317.4,732.7 317.4,734.8 
					367.8,734.8 				"/>
			</g>
			<g>
				<polygon class="st3" points="612.2,658.9 719.6,658.9 719.6,656.9 613.1,656.9 573.8,617.6 433,617.6 388.3,573 319.4,573 
					319.4,574.9 387.4,574.9 432.1,619.7 572.9,619.7 				"/>
			</g>
			<g>
				<path class="st3" d="M532.7,449.3c0,2.3,1.8,4.1,4,4.1c2.2,0,4.1-1.8,4.1-4.1c0-2.2-1.9-4-4.1-4
					C534.5,445.3,532.7,447.1,532.7,449.3z"/>
			</g>
			<g>
				<path class="st3" d="M690.5,459.8c0,2.2,1.8,4.1,4.1,4.1c2.2,0,4-1.8,4-4.1c0-2.2-1.8-4-4-4
					C692.3,455.8,690.5,457.6,690.5,459.8z"/>
			</g>
			<g>
				<path class="st3" d="M689.1,502.5c0,2.2,1.8,4,4.1,4c2.2,0,4.1-1.8,4.1-4c0-2.3-1.8-4.1-4.1-4.1
					C691,498.5,689.1,500.3,689.1,502.5z"/>
			</g>
			<g>
				<path class="st3" d="M792.1,606.5c0,2.2,1.8,4.1,4,4.1c2.3,0,4.1-1.8,4.1-4.1c0-2.2-1.8-4-4.1-4
					C793.9,602.4,792.1,604.2,792.1,606.5z"/>
			</g>
			<g>
				<path class="st3" d="M631.6,576.3c0,2.3,1.8,4.1,4.1,4.1c2.3,0,4.1-1.8,4.1-4.1c0-2.2-1.8-4.1-4.1-4.1
					C633.4,572.2,631.6,574.1,631.6,576.3z"/>
			</g>
			<g>
				<path class="st3" d="M688.5,614.3c0,2.2,1.8,4,4,4c2.3,0,4.1-1.8,4.1-4c0-2.3-1.8-4.1-4.1-4.1
					C690.3,610.2,688.5,612,688.5,614.3z"/>
			</g>
			<g>
				<path class="st3" d="M681,638.6c0,2.2,1.8,4,4.1,4s4.1-1.8,4.1-4c0-2.2-1.8-4.1-4.1-4.1S681,636.4,681,638.6z"/>
			</g>
			<g>
				<path class="st3" d="M504.8,603.1c0,2.2,1.8,4,4,4s4.1-1.8,4.1-4c0-2.3-1.8-4.1-4.1-4.1S504.8,600.8,504.8,603.1z"/>
			</g>
			<g>
				<path class="st3" d="M454,538c0,2.2,1.8,4.1,4.1,4.1c2.2,0,4.1-1.8,4.1-4.1c0-2.2-1.8-4-4.1-4C455.9,534,454,535.8,454,538z"/>
			</g>
			<g>
				<path class="st3" d="M618.1,489.3c0,2.3,1.8,4.1,4.1,4.1c2.2,0,4-1.8,4-4.1c0-2.2-1.8-4.1-4-4.1
					C619.9,485.2,618.1,487.1,618.1,489.3z"/>
			</g>
			<g>
				<path class="st3" d="M560.2,563.8c0,2.2,1.8,4.1,4,4.1s4.1-1.8,4.1-4.1c0-2.2-1.8-4.1-4.1-4.1S560.2,561.6,560.2,563.8z"/>
			</g>
			<g>
				<path class="st3" d="M546.5,645.5c0,2.3,1.8,4.1,4,4.1s4.1-1.8,4.1-4.1c0-2.2-1.8-4-4.1-4S546.5,643.3,546.5,645.5z"/>
			</g>
			<g>
				<path class="st3" d="M503,688.7c0,2.2,1.8,4.1,4.1,4.1s4.1-1.8,4.1-4.1c0-2.2-1.8-4.1-4.1-4.1S503,686.5,503,688.7z"/>
			</g>
			<g>
				<path class="st3" d="M827.6,656.9c0,2.3,1.8,4.1,4,4.1c2.3,0,4.1-1.8,4.1-4.1c0-2.2-1.8-4.1-4.1-4.1
					C829.4,652.8,827.6,654.7,827.6,656.9z"/>
			</g>
			<g>
				<path class="st3" d="M714.9,657.5c0,2.3,1.8,4.1,4,4.1s4.1-1.8,4.1-4.1c0-2.2-1.8-4.1-4.1-4.1S714.9,655.3,714.9,657.5z"/>
			</g>
			<g>
				<path class="st3" d="M435.2,638.9c0,2.3,1.8,4.1,4.1,4.1c2.2,0,4-1.8,4-4.1c0-2.2-1.8-4-4-4
					C437.1,634.9,435.2,636.7,435.2,638.9z"/>
			</g>
			<g>
				<path class="st3" d="M348.7,522.5c0,2.2,1.8,4,4.1,4s4-1.8,4-4c0-2.2-1.8-4.1-4-4.1S348.7,520.3,348.7,522.5z"/>
			</g>
			<g>
				<path class="st3" d="M569.3,618.7c0,2.3,1.8,4.1,4,4.1s4.1-1.8,4.1-4.1c0-2.2-1.8-4-4.1-4S569.3,616.4,569.3,618.7z"/>
			</g>
			<g>
				<path class="st3" d="M562,466.1c0,2.3,1.8,4.1,4.1,4.1s4.1-1.8,4.1-4.1c0-2.2-1.8-4-4.1-4S562,463.8,562,466.1z"/>
			</g>
			<g>
				<path class="st3" d="M472.6,421.9c0,2.2,1.8,4,4.1,4s4.1-1.8,4.1-4s-1.9-4.1-4.1-4.1S472.6,419.7,472.6,421.9z"/>
			</g>
			<g>
				<path class="st3" d="M401.3,410c0,2.2,1.8,4,4.1,4c2.2,0,4.1-1.8,4.1-4c0-2.3-1.8-4.1-4.1-4.1
					C403.1,405.9,401.3,407.7,401.3,410z"/>
			</g>
			<g>
				<path class="st3" d="M349.9,410c0,2.2,1.8,4,4.1,4s4.1-1.8,4.1-4c0-2.3-1.8-4.1-4.1-4.1S349.9,407.7,349.9,410z"/>
			</g>
			<g>
				<path class="st3" d="M350.9,429.3c0,2.2,1.8,4.1,4.1,4.1c2.3,0,4.1-1.9,4.1-4.1c0-2.3-1.8-4.1-4.1-4.1
					C352.7,425.2,350.9,427,350.9,429.3z"/>
			</g>
			<g>
				<path class="st3" d="M414.7,452.7c0,2.2,1.8,4,4.1,4c2.3,0,4.1-1.8,4.1-4c0-2.3-1.8-4.1-4.1-4.1
					C416.5,448.6,414.7,450.4,414.7,452.7z"/>
			</g>
			<g>
				<path class="st3" d="M491.4,489.3c0,2.3,1.8,4.1,4,4.1c2.3,0,4.1-1.8,4.1-4.1c0-2.2-1.8-4.1-4.1-4.1
					C493.2,485.2,491.4,487.1,491.4,489.3z"/>
			</g>
			<g>
				<path class="st3" d="M776.8,502.9c0,2.2,1.8,4.1,4.1,4.1s4.1-1.8,4.1-4.1c0-2.2-1.8-4.1-4.1-4.1S776.8,500.6,776.8,502.9z"/>
			</g>
			<g>
				<path class="st3" d="M731.1,529.9c0,3.2,2.6,5.8,5.7,5.8c3.2,0,5.8-2.6,5.8-5.8c0-3.2-2.6-5.8-5.8-5.8
					C733.7,524.2,731.1,526.8,731.1,529.9z"/>
			</g>
			<g>
				<path class="st3" d="M571.9,505c0,3.2,2.6,5.8,5.8,5.8c3.2,0,5.8-2.6,5.8-5.8c0-3.2-2.6-5.7-5.8-5.7
					C574.5,499.3,571.9,501.9,571.9,505z"/>
			</g>
			<g>
				<path class="st3" d="M458.2,505.3c0,3.2,2.6,5.7,5.8,5.7c3.2,0,5.7-2.6,5.7-5.7c0-3.2-2.6-5.8-5.7-5.8
					C460.8,499.5,458.2,502.1,458.2,505.3z"/>
			</g>
			<g>
				<path class="st3" d="M791.7,581.7c0,3.2,2.6,5.7,5.8,5.7c3.2,0,5.8-2.5,5.8-5.7c0-3.2-2.6-5.7-5.8-5.7
					C794.3,576,791.7,578.6,791.7,581.7z"/>
			</g>
		</g>
		<g class="st4">
			<g>
				<polygon class="st3" points="522.5,482.9 546.9,482.9 546.9,481.4 523.2,481.4 503.1,460.9 458.6,460.9 450.1,452.4 
					411.4,452.4 388.6,475.1 389.7,476.2 412,453.9 449.4,453.9 457.9,462.4 502.5,462.4 				"/>
			</g>
			<g>
				<polygon class="st3" points="390.2,513.8 430.9,513.8 459.6,485.2 488.8,485.2 516,512.5 610.3,512.5 632.3,490.5 663.6,490.5 
					663.6,488.9 631.7,488.9 609.7,511 516.6,511 489.4,483.7 458.9,483.7 430.3,512.3 390.2,512.3 				"/>
			</g>
			<g>
				<polygon class="st3" points="606.7,533.7 670.7,533.7 681.9,522.5 728.2,522.5 728.2,521 681.3,521 670,532.2 607.3,532.2 
					568.9,493.8 510.1,493.8 483.4,467.1 412.4,467.1 400.4,479 388.7,479 388.7,480.5 401.1,480.5 413,468.6 482.8,468.6 
					509.5,495.3 568.2,495.3 				"/>
			</g>
			<g>
				<polygon class="st3" points="472.8,623.9 498.8,623.9 525.7,597.1 559.7,597.1 635.3,521.5 663,521.5 663,520 634.7,520 
					559.1,595.6 525,595.6 498.3,622.4 472.8,622.4 				"/>
			</g>
			<g>
				<polygon class="st3" points="440.6,540.1 478.7,540.1 493.9,524.8 577.5,524.8 577.5,521.8 492.7,521.8 477.4,537 441.8,537 
					422.4,517.6 388.7,517.6 388.7,520.6 421.2,520.6 				"/>
			</g>
			<g>
				<polygon class="st3" points="507,568.1 567.4,568.1 567.4,566.6 507.6,566.6 488.9,547.8 423.5,547.8 411.4,535.7 386.1,535.7 
					386.1,537.1 410.7,537.1 422.9,549.3 488.2,549.3 				"/>
			</g>
			<g>
				<polygon class="st3" points="464.1,595.8 490.8,595.8 548,538.6 585,538.6 612.4,566.1 702.3,566.1 717.5,581.3 739.2,581.3 
					739.2,578.3 718.8,578.3 703.5,563.1 613.6,563.1 586.2,535.7 546.8,535.7 489.6,592.8 465.4,592.8 453.1,580.6 386.6,580.6 
					386.6,583.6 451.9,583.6 				"/>
			</g>
			<g>
				<polygon class="st3" points="498.7,588.6 597.4,588.6 642.7,543.3 695.1,543.3 695.1,540.2 641.4,540.2 596.1,585.6 
					499.9,585.6 478.8,564.4 388.7,564.4 388.7,567.4 477.5,567.4 				"/>
			</g>
			<g>
				<polygon class="st3" points="705.8,599.1 739.2,599.1 739.2,597.6 706.4,597.6 684.2,575.3 620,575.3 620,576.8 683.5,576.8 
									"/>
			</g>
			<g>
				<polygon class="st3" points="410.4,660.7 525.1,660.7 557.7,628.2 616.3,628.2 639.3,605.1 662.6,605.1 662.6,603.6 
					638.7,603.6 615.7,626.7 557.1,626.7 524.6,659.2 411,659.2 390.5,638.7 383.2,638.7 383.2,640.2 389.9,640.2 				"/>
			</g>
			<g>
				<polygon class="st3" points="429.4,700.8 526.2,700.8 536.2,690.7 588.8,690.7 657.4,622.1 749.9,622.1 763.7,636 764.7,634.9 
					750.5,620.6 656.8,620.6 588.1,689.2 535.6,689.2 525.5,699.3 430,699.3 422.5,691.8 384.7,691.8 384.7,693.3 421.9,693.3 				
					"/>
			</g>
			<g>
				<polygon class="st3" points="602.7,637.2 682.1,637.2 682.1,635.7 603.3,635.7 574.3,606.6 470.1,606.6 437,573.6 386.1,573.6 
					386.1,575 436.5,575 469.4,608.1 573.6,608.1 				"/>
			</g>
			<g>
				<path class="st3" d="M543.9,482.2c0,1.7,1.3,3,3,3c1.6,0,3-1.4,3-3c0-1.7-1.4-3-3-3C545.2,479.2,543.9,480.5,543.9,482.2z"/>
			</g>
			<g>
				<path class="st3" d="M660.6,489.9c0,1.7,1.4,3,3,3c1.7,0,3-1.3,3-3c0-1.7-1.4-3-3-3C661.9,486.9,660.6,488.3,660.6,489.9z"/>
			</g>
			<g>
				<path class="st3" d="M659.6,521.5c0,1.6,1.3,3,3,3c1.7,0,3-1.4,3-3c0-1.7-1.4-3-3-3C660.9,518.5,659.6,519.8,659.6,521.5z"/>
			</g>
			<g>
				<path class="st3" d="M735.7,598.4c0,1.7,1.3,3,3,3c1.7,0,3-1.3,3-3c0-1.7-1.3-3-3-3C737,595.4,735.7,596.7,735.7,598.4z"/>
			</g>
			<g>
				<path class="st3" d="M617,576.1c0,1.6,1.4,3,3,3c1.7,0,3-1.4,3-3c0-1.7-1.3-3-3-3C618.4,573,617,574.4,617,576.1z"/>
			</g>
			<g>
				<path class="st3" d="M659.1,604.1c0,1.6,1.4,3,3,3c1.7,0,3-1.3,3-3c0-1.7-1.4-3-3-3C660.4,601.1,659.1,602.5,659.1,604.1z"/>
			</g>
			<g>
				<path class="st3" d="M653.6,622.1c0,1.7,1.4,3,3,3c1.7,0,3-1.3,3-3c0-1.6-1.4-3-3-3C654.9,619.1,653.6,620.5,653.6,622.1z"/>
			</g>
			<g>
				<path class="st3" d="M523.2,595.9c0,1.7,1.3,3,3,3c1.7,0,3-1.3,3-3c0-1.6-1.3-3-3-3C524.6,592.9,523.2,594.2,523.2,595.9z"/>
			</g>
			<g>
				<path class="st3" d="M485.6,547.8c0,1.7,1.4,3,3,3c1.7,0,3-1.4,3-3c0-1.6-1.4-3-3-3C487,544.8,485.6,546.1,485.6,547.8z"/>
			</g>
			<g>
				<path class="st3" d="M607,511.7c0,1.7,1.3,3,3,3c1.7,0,3-1.3,3-3c0-1.6-1.3-3-3-3C608.3,508.7,607,510.1,607,511.7z"/>
			</g>
			<g>
				<path class="st3" d="M564.2,566.8c0,1.6,1.3,3,3,3c1.7,0,3-1.3,3-3c0-1.7-1.3-3-3-3C565.5,563.8,564.2,565.1,564.2,566.8z"/>
			</g>
			<g>
				<path class="st3" d="M554.1,627.3c0,1.6,1.3,3,3,3c1.7,0,3-1.4,3-3c0-1.7-1.4-3-3-3C555.4,624.2,554.1,625.6,554.1,627.3z"/>
			</g>
			<g>
				<path class="st3" d="M521.8,659.2c0,1.7,1.4,3,3,3c1.7,0,3-1.3,3-3c0-1.7-1.4-3-3-3C523.2,656.2,521.8,657.5,521.8,659.2z"/>
			</g>
			<g>
				<path class="st3" d="M762,635.7c0,1.6,1.4,3,3,3c1.7,0,3-1.3,3-3c0-1.7-1.4-3-3-3C763.3,632.6,762,634,762,635.7z"/>
			</g>
			<g>
				<path class="st3" d="M678.6,636.2c0,1.6,1.3,3,3,3c1.7,0,3-1.4,3-3c0-1.7-1.3-3-3-3C679.9,633.2,678.6,634.5,678.6,636.2z"/>
			</g>
			<g>
				<path class="st3" d="M471.8,622.4c0,1.7,1.4,3,3,3c1.7,0,3-1.4,3-3c0-1.6-1.4-3-3-3C473.1,619.4,471.8,620.8,471.8,622.4z"/>
			</g>
			<g>
				<path class="st3" d="M407.8,536.3c0,1.7,1.4,3,3,3c1.7,0,3-1.3,3-3s-1.3-3-3-3C409.2,533.3,407.8,534.6,407.8,536.3z"/>
			</g>
			<g>
				<path class="st3" d="M570.9,607.4c0,1.7,1.3,3,3,3c1.7,0,3-1.4,3-3c0-1.7-1.4-3-3-3C572.2,604.4,570.9,605.8,570.9,607.4z"/>
			</g>
			<g>
				<path class="st3" d="M565.5,494.5c0,1.7,1.4,3,3,3c1.7,0,3-1.4,3-3c0-1.6-1.4-3-3-3C566.9,491.6,565.5,492.9,565.5,494.5z"/>
			</g>
			<g>
				<path class="st3" d="M499.4,461.9c0,1.7,1.4,3,3,3c1.7,0,3-1.3,3-3c0-1.7-1.4-3-3-3C500.8,458.9,499.4,460.2,499.4,461.9z"/>
			</g>
			<g>
				<path class="st3" d="M446.7,453.1c0,1.7,1.4,3,3,3c1.6,0,3-1.3,3-3c0-1.7-1.4-3-3-3C448,450.1,446.7,451.4,446.7,453.1z"/>
			</g>
			<g>
				<path class="st3" d="M408.7,453.1c0,1.7,1.4,3,3,3c1.7,0,3-1.3,3-3c0-1.7-1.3-3-3-3C410,450.1,408.7,451.4,408.7,453.1z"/>
			</g>
			<g>
				<path class="st3" d="M409.5,467.4c0,1.7,1.3,3,3,3c1.6,0,3-1.4,3-3c0-1.7-1.4-3-3-3C410.8,464.3,409.5,465.7,409.5,467.4z"/>
			</g>
			<g>
				<path class="st3" d="M456.6,484.6c0,1.7,1.4,3,3,3c1.7,0,3-1.3,3-3c0-1.7-1.3-3-3-3C457.9,481.6,456.6,483,456.6,484.6z"/>
			</g>
			<g>
				<path class="st3" d="M513.4,511.7c0,1.7,1.3,3,3,3s3-1.3,3-3c0-1.6-1.4-3-3-3S513.4,510.1,513.4,511.7z"/>
			</g>
			<g>
				<path class="st3" d="M724.4,521.8c0,1.6,1.4,3,3,3c1.7,0,3-1.4,3-3c0-1.6-1.3-3-3-3C725.8,518.7,724.4,520.1,724.4,521.8z"/>
			</g>
			<g>
				<circle class="st3" cx="694.9" cy="541.8" r="4.3"/>
			</g>
			<g>
				<path class="st3" d="M572.9,523.4c0,2.3,1.9,4.3,4.3,4.3s4.3-1.9,4.3-4.3c0-2.3-1.9-4.2-4.3-4.2S572.9,521,572.9,523.4z"/>
			</g>
			<g>
				<path class="st3" d="M488.8,523.5c0,2.4,1.9,4.3,4.3,4.3c2.3,0,4.3-1.9,4.3-4.3c0-2.3-1.9-4.3-4.3-4.3
					C490.7,519.3,488.8,521.2,488.8,523.5z"/>
			</g>
			<g>
				<path class="st3" d="M735.4,580.1c0,2.3,1.9,4.2,4.3,4.2s4.3-1.9,4.3-4.2c0-2.4-1.9-4.3-4.3-4.3S735.4,577.7,735.4,580.1z"/>
			</g>
		</g>
		<g>
			<g>
				<polygon class="st3" points="529.3,494.6 550.5,494.6 550.5,493.4 529.8,493.4 512.3,475.4 473.4,475.4 466,468 432.2,468 
					412.4,487.9 413.3,488.8 432.7,469.3 465.4,469.3 472.9,476.7 511.8,476.7 				"/>
			</g>
			<g>
				<polygon class="st3" points="413.7,521.6 449.3,521.6 474.3,496.7 499.8,496.7 523.6,520.5 605.9,520.5 625.1,501.2 
					652.4,501.2 652.4,499.9 624.6,499.9 605.3,519.1 524.1,519.1 500.3,495.3 473.8,495.3 448.7,520.4 413.7,520.4 				"/>
			</g>
			<g>
				<polygon class="st3" points="602.7,539 658.6,539 668.4,529.2 708.8,529.2 708.8,527.9 667.9,527.9 658,537.7 603.3,537.7 
					569.7,504.2 518.4,504.2 495.1,480.8 433.1,480.8 422.7,491.2 412.4,491.2 412.4,492.6 423.2,492.6 433.6,482.1 494.6,482.1 
					517.9,505.5 569.2,505.5 				"/>
			</g>
			<g>
				<polygon class="st3" points="485.8,617.7 508.6,617.7 532,594.3 561.7,594.3 627.7,528.3 652,528.3 652,527 627.2,527 
					561.2,593.1 531.4,593.1 508.1,616.4 485.8,616.4 				"/>
			</g>
			<g>
				<polygon class="st3" points="457.7,544.5 491,544.5 504.3,531.2 577.2,531.2 577.2,528.5 503.2,528.5 489.9,541.9 458.8,541.9 
					441.9,524.9 412.4,524.9 412.4,527.5 440.8,527.5 				"/>
			</g>
			<g>
				<polygon class="st3" points="515.7,569 568.4,569 568.4,567.7 516.3,567.7 499.9,551.3 442.8,551.3 432.2,540.7 410.1,540.7 
					410.1,542 431.6,542 442.2,552.6 499.3,552.6 				"/>
			</g>
			<g>
				<polygon class="st3" points="478.3,593.2 501.6,593.2 551.5,543.3 583.8,543.3 607.7,567.2 686.2,567.2 699.5,580.6 
					718.5,580.6 718.5,577.9 700.6,577.9 687.3,564.6 608.8,564.6 584.8,540.7 550.4,540.7 500.5,590.6 479.4,590.6 468.7,579.9 
					410.6,579.9 410.6,582.5 467.6,582.5 				"/>
			</g>
			<g>
				<polygon class="st3" points="508.5,586.9 594.6,586.9 634.1,547.4 679.9,547.4 679.9,544.7 633.1,544.7 593.5,584.3 
					509.6,584.3 491.1,565.8 412.4,565.8 412.4,568.5 490,568.5 				"/>
			</g>
			<g>
				<polygon class="st3" points="689.3,596.1 718.5,596.1 718.5,594.8 689.8,594.8 670.4,575.3 614.4,575.3 614.4,576.7 
					669.9,576.7 				"/>
			</g>
			<g>
				<polygon class="st3" points="431.4,649.9 531.6,649.9 560,621.5 611.1,621.5 631.2,601.4 651.5,601.4 651.5,600 630.7,600 
					610.6,620.2 559.4,620.2 531,648.6 431.9,648.6 413.9,630.7 407.6,630.7 407.6,632 413.4,632 				"/>
			</g>
			<g>
				<polygon class="st3" points="447.9,684.9 532.4,684.9 541.2,676.1 587.1,676.1 647,616.2 727.8,616.2 739.8,628.3 740.8,627.3 
					728.3,614.9 646.5,614.9 586.6,674.8 540.6,674.8 531.9,683.6 448.5,683.6 442,677 408.9,677 408.9,678.3 441.4,678.3 				"/>
			</g>
			<g>
				<polygon class="st3" points="599.2,629.3 668.6,629.3 668.6,628 599.8,628 574.4,602.7 483.5,602.7 454.6,573.8 410.1,573.8 
					410.1,575.1 454.1,575.1 482.9,604 573.9,604 				"/>
			</g>
			<g>
				<path class="st3" d="M547.9,494c0,1.5,1.1,2.7,2.6,2.7c1.5,0,2.6-1.2,2.6-2.7c0-1.4-1.2-2.6-2.6-2.6
					C549.1,491.4,547.9,492.6,547.9,494z"/>
			</g>
			<g>
				<path class="st3" d="M649.8,500.8c0,1.5,1.2,2.6,2.6,2.6c1.5,0,2.6-1.2,2.6-2.6c0-1.4-1.2-2.6-2.6-2.6
					C651,498.2,649.8,499.3,649.8,500.8z"/>
			</g>
			<g>
				<path class="st3" d="M648.9,528.3c0,1.5,1.2,2.6,2.6,2.6c1.5,0,2.6-1.2,2.6-2.6c0-1.4-1.2-2.6-2.6-2.6
					C650.1,525.7,648.9,526.9,648.9,528.3z"/>
			</g>
			<g>
				<path class="st3" d="M715.4,595.4c0,1.4,1.2,2.6,2.6,2.6c1.5,0,2.6-1.2,2.6-2.6c0-1.4-1.2-2.6-2.6-2.6
					C716.5,592.8,715.4,594,715.4,595.4z"/>
			</g>
			<g>
				<path class="st3" d="M611.8,576c0,1.4,1.2,2.6,2.6,2.6c1.5,0,2.6-1.2,2.6-2.6c0-1.5-1.2-2.6-2.6-2.6
					C612.9,573.4,611.8,574.5,611.8,576z"/>
			</g>
			<g>
				<path class="st3" d="M648.5,600.5c0,1.4,1.2,2.6,2.6,2.6c1.4,0,2.6-1.1,2.6-2.6c0-1.5-1.2-2.7-2.6-2.7
					C649.6,597.8,648.5,599,648.5,600.5z"/>
			</g>
			<g>
				<path class="st3" d="M643.7,616.2c0,1.4,1.2,2.6,2.6,2.6c1.4,0,2.6-1.1,2.6-2.6c0-1.5-1.2-2.7-2.6-2.7
					C644.8,613.6,643.7,614.8,643.7,616.2z"/>
			</g>
			<g>
				<path class="st3" d="M529.9,593.3c0,1.4,1.2,2.6,2.6,2.6c1.4,0,2.6-1.2,2.6-2.6c0-1.5-1.1-2.6-2.6-2.6
					C531.1,590.6,529.9,591.8,529.9,593.3z"/>
			</g>
			<g>
				<path class="st3" d="M497,551.3c0,1.4,1.2,2.6,2.6,2.6c1.5,0,2.6-1.2,2.6-2.6c0-1.5-1.2-2.6-2.6-2.6
					C498.3,548.7,497,549.8,497,551.3z"/>
			</g>
			<g>
				<path class="st3" d="M603,519.8c0,1.4,1.2,2.6,2.6,2.6c1.5,0,2.6-1.2,2.6-2.6c0-1.4-1.1-2.6-2.6-2.6
					C604.2,517.2,603,518.4,603,519.8z"/>
			</g>
			<g>
				<path class="st3" d="M565.6,567.9c0,1.4,1.2,2.6,2.6,2.6c1.5,0,2.6-1.2,2.6-2.6c0-1.4-1.1-2.6-2.6-2.6
					C566.8,565.3,565.6,566.5,565.6,567.9z"/>
			</g>
			<g>
				<path class="st3" d="M556.8,620.7c0,1.4,1.2,2.6,2.6,2.6c1.4,0,2.6-1.2,2.6-2.6c0-1.5-1.2-2.6-2.6-2.6
					C557.9,618.1,556.8,619.3,556.8,620.7z"/>
			</g>
			<g>
				<path class="st3" d="M528.7,648.6c0,1.4,1.2,2.6,2.6,2.6c1.5,0,2.6-1.2,2.6-2.6c0-1.5-1.2-2.6-2.6-2.6
					C529.8,646,528.7,647.1,528.7,648.6z"/>
			</g>
			<g>
				<path class="st3" d="M738.3,628c0,1.5,1.2,2.6,2.6,2.6c1.5,0,2.6-1.2,2.6-2.6c0-1.5-1.2-2.6-2.6-2.6
					C739.5,625.4,738.3,626.6,738.3,628z"/>
			</g>
			<g>
				<path class="st3" d="M665.5,628.5c0,1.4,1.2,2.6,2.6,2.6s2.6-1.2,2.6-2.6s-1.1-2.6-2.6-2.6S665.5,627,665.5,628.5z"/>
			</g>
			<g>
				<path class="st3" d="M484.9,616.4c0,1.5,1.2,2.6,2.6,2.6c1.5,0,2.6-1.2,2.6-2.6c0-1.4-1.2-2.6-2.6-2.6
					C486.1,613.8,484.9,615,484.9,616.4z"/>
			</g>
			<g>
				<path class="st3" d="M429.1,541.2c0,1.5,1.2,2.6,2.6,2.6c1.4,0,2.6-1.2,2.6-2.6c0-1.5-1.2-2.6-2.6-2.6
					C430.3,538.6,429.1,539.8,429.1,541.2z"/>
			</g>
			<g>
				<path class="st3" d="M571.5,603.4c0,1.4,1.1,2.6,2.6,2.6c1.5,0,2.6-1.2,2.6-2.6c0-1.5-1.2-2.6-2.6-2.6
					C572.7,600.7,571.5,601.9,571.5,603.4z"/>
			</g>
			<g>
				<path class="st3" d="M566.8,504.8c0,1.4,1.2,2.6,2.6,2.6c1.5,0,2.6-1.2,2.6-2.6c0-1.5-1.2-2.6-2.6-2.6
					C568,502.2,566.8,503.4,566.8,504.8z"/>
			</g>
			<g>
				<path class="st3" d="M509.1,476.3c0,1.5,1.2,2.6,2.6,2.6c1.4,0,2.6-1.1,2.6-2.6c0-1.4-1.2-2.6-2.6-2.6
					C510.3,473.7,509.1,474.9,509.1,476.3z"/>
			</g>
			<g>
				<path class="st3" d="M463,468.6c0,1.4,1.2,2.6,2.6,2.6c1.4,0,2.6-1.2,2.6-2.6c0-1.4-1.2-2.6-2.6-2.6
					C464.2,466,463,467.2,463,468.6z"/>
			</g>
			<g>
				<path class="st3" d="M429.8,468.6c0,1.4,1.2,2.6,2.6,2.6c1.4,0,2.6-1.2,2.6-2.6c0-1.4-1.2-2.6-2.6-2.6
					C431,466,429.8,467.2,429.8,468.6z"/>
			</g>
			<g>
				<path class="st3" d="M430.5,481.1c0,1.4,1.2,2.6,2.6,2.6c1.5,0,2.6-1.2,2.6-2.6c0-1.5-1.2-2.6-2.6-2.6
					C431.7,478.4,430.5,479.6,430.5,481.1z"/>
			</g>
			<g>
				<path class="st3" d="M471.7,496.2c0,1.5,1.2,2.6,2.6,2.6c1.4,0,2.6-1.1,2.6-2.6c0-1.5-1.2-2.6-2.6-2.6
					C472.8,493.5,471.7,494.7,471.7,496.2z"/>
			</g>
			<g>
				<path class="st3" d="M521.3,519.8c0,1.4,1.1,2.6,2.6,2.6c1.4,0,2.6-1.2,2.6-2.6c0-1.4-1.2-2.6-2.6-2.6
					C522.4,517.2,521.3,518.4,521.3,519.8z"/>
			</g>
			<g>
				<path class="st3" d="M705.5,528.5c0,1.5,1.2,2.6,2.6,2.6c1.5,0,2.6-1.2,2.6-2.6c0-1.4-1.2-2.6-2.6-2.6
					C706.7,525.9,705.5,527.1,705.5,528.5z"/>
			</g>
			<g>
				<path class="st3" d="M676,546c0,2.1,1.7,3.7,3.7,3.7s3.7-1.7,3.7-3.7s-1.7-3.7-3.7-3.7S676,544,676,546z"/>
			</g>
			<g>
				<path class="st3" d="M573.2,530c0,2.1,1.7,3.7,3.7,3.7c2.1,0,3.7-1.7,3.7-3.7c0-2.1-1.7-3.7-3.7-3.7
					C574.9,526.3,573.2,527.9,573.2,530z"/>
			</g>
			<g>
				<path class="st3" d="M499.8,530.1c0,2.1,1.7,3.7,3.7,3.7c2.1,0,3.7-1.7,3.7-3.7c0-2-1.7-3.7-3.7-3.7
					C501.4,526.4,499.8,528.1,499.8,530.1z"/>
			</g>
			<g>
				<path class="st3" d="M715.2,579.5c0,2,1.7,3.7,3.7,3.7c2.1,0,3.7-1.6,3.7-3.7c0-2.1-1.7-3.7-3.7-3.7
					C716.8,575.8,715.2,577.4,715.2,579.5z"/>
			</g>
		</g>
	</g>
</g>
<g class="st0">
	<defs>
		<rect id="SVGID_3_" x="-28" y="359" class="st0" width="459.5" height="459.5"/>
	</defs>
	<clipPath id="SVGID_4_">
		<use xlink:href="#SVGID_3_"  style="overflow:visible;"/>
	</clipPath>
	<g class="st5">
		<g class="st4">
			<g>
				<polygon class="st3" points="348.1,709.5 317.2,709.5 317.2,711.4 347.4,711.4 372.8,737.6 429.5,737.6 440.4,748.4 
					489.6,748.4 518.5,719.4 517.2,718.1 488.8,746.4 441.2,746.4 430.3,735.6 373.6,735.6 				"/>
			</g>
			<g>
				<polygon class="st3" points="516.6,670.2 464.7,670.2 428.3,706.6 391.1,706.6 356.4,671.9 236.5,671.9 208.5,700 168.7,700 
					168.7,701.9 209.2,701.9 237.3,673.9 355.6,673.9 390.3,708.5 429,708.5 465.5,672.1 516.6,672.1 				"/>
			</g>
			<g>
				<polygon class="st3" points="241.1,644.9 159.7,644.9 145.4,659.2 86.5,659.2 86.5,661.1 146.2,661.1 160.5,646.8 240.3,646.8 
					289.2,695.7 363.9,695.7 397.9,729.7 488.3,729.7 503.5,714.5 518.5,714.5 518.5,712.6 502.7,712.6 487.5,727.8 398.7,727.8 
					364.7,693.7 290,693.7 				"/>
			</g>
			<g>
				<polygon class="st3" points="411.4,530.2 378.3,530.2 344.2,564.3 300.9,564.3 204.7,660.4 169.4,660.4 169.4,662.4 
					205.4,662.4 301.6,566.2 345,566.2 379,532.1 411.4,532.1 				"/>
			</g>
			<g>
				<polygon class="st3" points="452.4,636.9 404,636.9 384.6,656.3 278.3,656.3 278.3,660.1 386.1,660.1 405.5,640.7 450.8,640.7 
					475.5,665.4 518.5,665.4 518.5,661.6 477.1,661.6 				"/>
			</g>
			<g>
				<polygon class="st3" points="367.9,601.2 291.1,601.2 291.1,603.1 367.1,603.1 391,627 474.1,627 489.6,642.5 521.7,642.5 
					521.7,640.6 490.4,640.6 475,625.1 391.8,625.1 				"/>
			</g>
			<g>
				<polygon class="st3" points="422.4,565.9 388.4,565.9 315.7,638.7 268.7,638.7 233.9,603.8 119.5,603.8 100.1,584.3 72.5,584.3 
					72.5,588.2 98.5,588.2 117.9,607.6 232.3,607.6 267.1,642.5 317.3,642.5 390,569.8 420.8,569.8 436.4,585.3 521,585.3 
					521,581.5 438,581.5 				"/>
			</g>
			<g>
				<polygon class="st3" points="378.5,575.1 253,575.1 195.3,632.8 128.6,632.8 128.6,636.6 196.9,636.6 254.5,578.9 376.9,578.9 
					403.8,605.8 518.5,605.8 518.5,602 405.4,602 				"/>
			</g>
			<g>
				<polygon class="st3" points="115,561.7 72.5,561.7 72.5,563.6 114.2,563.6 142.5,592 224.1,592 224.1,590.1 143.3,590.1 				"/>
			</g>
			<g>
				<polygon class="st3" points="490.8,483.3 344.8,483.3 303.4,524.7 228.8,524.7 199.6,554.1 170,554.1 170,556 200.4,556 
					229.6,526.7 304.2,526.7 345.6,485.3 490.1,485.3 516.2,511.4 525.5,511.4 525.5,509.5 517,509.5 				"/>
			</g>
			<g>
				<polygon class="st3" points="466.6,432.4 343.5,432.4 330.8,445.1 263.9,445.1 176.6,532.4 58.9,532.4 41.3,514.8 40,516.2 
					58.1,534.3 177.4,534.3 264.7,447 331.6,447 344.3,434.3 465.8,434.3 475.4,443.9 523.6,443.9 523.6,441.9 476.2,441.9 				"/>
			</g>
			<g>
				<polygon class="st3" points="246.2,513.3 145.1,513.3 145.1,515.2 245.4,515.2 282.4,552.2 414.9,552.2 456.9,594.2 
					521.7,594.2 521.7,592.3 457.7,592.3 415.7,550.2 283.2,550.2 				"/>
			</g>
			<g>
				<path class="st3" d="M321,710.5c0-2.1-1.7-3.9-3.8-3.9c-2.1,0-3.9,1.7-3.9,3.9c0,2.1,1.8,3.8,3.9,3.8
					C319.3,714.3,321,712.6,321,710.5z"/>
			</g>
			<g>
				<path class="st3" d="M172.5,700.6c0-2.1-1.7-3.8-3.8-3.8c-2.1,0-3.8,1.7-3.8,3.8c0,2.1,1.7,3.8,3.8,3.8
					C170.8,704.4,172.5,702.7,172.5,700.6z"/>
			</g>
			<g>
				<path class="st3" d="M173.8,660.4c0-2.1-1.7-3.8-3.8-3.8c-2.1,0-3.8,1.7-3.8,3.8c0,2.1,1.7,3.8,3.8,3.8
					C172.1,664.3,173.8,662.6,173.8,660.4z"/>
			</g>
			<g>
				<path class="st3" d="M77,562.7c0-2.1-1.7-3.8-3.8-3.8c-2.1,0-3.8,1.7-3.8,3.8c0,2.1,1.7,3.8,3.8,3.8
					C75.3,566.4,77,564.8,77,562.7z"/>
			</g>
			<g>
				<path class="st3" d="M228,591c0-2.1-1.7-3.8-3.8-3.8c-2.1,0-3.8,1.7-3.8,3.8c0,2.1,1.7,3.9,3.8,3.9
					C226.2,594.9,228,593.1,228,591z"/>
			</g>
			<g>
				<path class="st3" d="M174.4,555.3c0-2.1-1.7-3.8-3.8-3.8c-2.1,0-3.8,1.7-3.8,3.8c0,2.1,1.7,3.9,3.8,3.9
					C172.7,559.2,174.4,557.4,174.4,555.3z"/>
			</g>
			<g>
				<path class="st3" d="M181.5,532.4c0-2.1-1.7-3.8-3.8-3.8c-2.1,0-3.8,1.7-3.8,3.8c0,2.1,1.7,3.8,3.8,3.8
					C179.7,536.2,181.5,534.5,181.5,532.4z"/>
			</g>
			<g>
				<path class="st3" d="M347.2,565.8c0-2.1-1.7-3.8-3.8-3.8c-2.1,0-3.8,1.7-3.8,3.8c0,2.1,1.7,3.8,3.8,3.8
					C345.6,569.7,347.2,568,347.2,565.8z"/>
			</g>
			<g>
				<path class="st3" d="M395.1,627c0-2.1-1.7-3.8-3.8-3.8c-2.1,0-3.8,1.7-3.8,3.8c0,2.1,1.7,3.8,3.8,3.8
					C393.3,630.8,395.1,629.1,395.1,627z"/>
			</g>
			<g>
				<path class="st3" d="M240.7,672.9c0-2.1-1.7-3.8-3.8-3.8c-2.1,0-3.8,1.7-3.8,3.8c0,2.1,1.7,3.8,3.8,3.8
					C239,676.7,240.7,675,240.7,672.9z"/>
			</g>
			<g>
				<path class="st3" d="M295.2,602.8c0-2.1-1.7-3.8-3.8-3.8c-2.1,0-3.8,1.7-3.8,3.8c0,2.1,1.7,3.8,3.8,3.8
					C293.5,606.6,295.2,604.9,295.2,602.8z"/>
			</g>
			<g>
				<path class="st3" d="M308.1,525.9c0-2.1-1.7-3.9-3.8-3.9s-3.8,1.7-3.8,3.9c0,2.1,1.7,3.8,3.8,3.8S308.1,528,308.1,525.9z"/>
			</g>
			<g>
				<path class="st3" d="M349,485.3c0-2.1-1.7-3.8-3.8-3.8s-3.8,1.7-3.8,3.8c0,2.1,1.7,3.8,3.8,3.8S349,487.4,349,485.3z"/>
			</g>
			<g>
				<path class="st3" d="M43.5,515.2c0-2.1-1.7-3.8-3.8-3.8c-2.1,0-3.9,1.7-3.9,3.8c0,2.1,1.7,3.8,3.9,3.8
					C41.8,519,43.5,517.3,43.5,515.2z"/>
			</g>
			<g>
				<path class="st3" d="M149.6,514.6c0-2.1-1.7-3.8-3.8-3.8c-2.1,0-3.8,1.7-3.8,3.8c0,2.1,1.7,3.8,3.8,3.8
					C147.9,518.4,149.6,516.6,149.6,514.6z"/>
			</g>
			<g>
				<path class="st3" d="M412.7,532.1c0-2.2-1.7-3.8-3.8-3.8s-3.8,1.7-3.8,3.8c0,2,1.7,3.8,3.8,3.8S412.7,534.1,412.7,532.1z"/>
			</g>
			<g>
				<path class="st3" d="M494.1,641.7c0-2.1-1.7-3.8-3.8-3.8c-2.1,0-3.8,1.7-3.8,3.8c0,2.1,1.7,3.8,3.8,3.8
					C492.4,645.5,494.1,643.8,494.1,641.7z"/>
			</g>
			<g>
				<path class="st3" d="M286.6,551.2c0-2.1-1.7-3.8-3.8-3.8s-3.8,1.7-3.8,3.8c0,2.1,1.7,3.8,3.8,3.8S286.6,553.3,286.6,551.2z"/>
			</g>
			<g>
				<path class="st3" d="M293.4,694.7c0-2.1-1.7-3.8-3.8-3.8c-2.1,0-3.8,1.7-3.8,3.8c0,2.1,1.7,3.8,3.8,3.8
					C291.7,698.5,293.4,696.8,293.4,694.7z"/>
			</g>
			<g>
				<path class="st3" d="M377.6,736.3c0-2.1-1.7-3.8-3.8-3.8c-2.1,0-3.9,1.7-3.9,3.8s1.8,3.8,3.9,3.8
					C375.8,740.1,377.6,738.4,377.6,736.3z"/>
			</g>
			<g>
				<path class="st3" d="M444.7,747.5c0-2.1-1.7-3.8-3.8-3.8c-2.1,0-3.8,1.7-3.8,3.8c0,2.1,1.7,3.8,3.8,3.8
					C443,751.3,444.7,749.6,444.7,747.5z"/>
			</g>
			<g>
				<path class="st3" d="M493,747.5c0-2.1-1.7-3.8-3.8-3.8c-2.1,0-3.8,1.7-3.8,3.8c0,2.1,1.7,3.8,3.8,3.8
					C491.3,751.3,493,749.6,493,747.5z"/>
			</g>
			<g>
				<path class="st3" d="M492.1,729.3c0-2.1-1.7-3.8-3.8-3.8c-2.1,0-3.9,1.8-3.9,3.8c0,2.1,1.7,3.8,3.9,3.8
					C490.3,733.2,492.1,731.5,492.1,729.3z"/>
			</g>
			<g>
				<path class="st3" d="M432.1,707.3c0-2.1-1.7-3.8-3.8-3.8c-2.1,0-3.8,1.7-3.8,3.8c0,2.1,1.7,3.9,3.8,3.9
					C430.4,711.2,432.1,709.5,432.1,707.3z"/>
			</g>
			<g>
				<path class="st3" d="M359.8,672.9c0-2.1-1.7-3.8-3.8-3.8c-2.1,0-3.9,1.7-3.9,3.8c0,2.1,1.7,3.8,3.9,3.8
					C358.2,676.7,359.8,675,359.8,672.9z"/>
			</g>
			<g>
				<path class="st3" d="M91.3,660.1c0-2.1-1.7-3.8-3.8-3.8s-3.8,1.7-3.8,3.8c0,2.1,1.7,3.8,3.8,3.8S91.3,662.2,91.3,660.1z"/>
			</g>
			<g>
				<path class="st3" d="M134.3,634.7c0-3-2.4-5.4-5.4-5.4c-3,0-5.4,2.4-5.4,5.4c0,3,2.4,5.4,5.4,5.4
					C131.9,640.1,134.3,637.6,134.3,634.7z"/>
			</g>
			<g>
				<path class="st3" d="M284.1,658.1c0-3-2.5-5.4-5.4-5.4c-3,0-5.5,2.4-5.5,5.4c0,3,2.5,5.4,5.5,5.4
					C281.7,663.5,284.1,661.1,284.1,658.1z"/>
			</g>
			<g>
				<path class="st3" d="M391.1,657.8c0-3-2.4-5.4-5.4-5.4c-3,0-5.4,2.4-5.4,5.4c0,3,2.4,5.5,5.4,5.5
					C388.7,663.3,391.1,660.8,391.1,657.8z"/>
			</g>
			<g>
				<path class="st3" d="M77.3,585.9c0-3-2.4-5.4-5.4-5.4c-3,0-5.4,2.4-5.4,5.4c0,3,2.4,5.4,5.4,5.4
					C74.9,591.3,77.3,588.9,77.3,585.9z"/>
			</g>
		</g>
		<g class="st0">
			<g>
				<polygon class="st3" points="330.6,678.9 307.7,678.9 307.7,680.3 330,680.3 348.8,699.6 390.8,699.6 398.8,707.6 435.2,707.6 
					456.6,686.2 455.6,685.2 434.6,706.2 399.4,706.2 391.4,698.2 349.4,698.2 				"/>
			</g>
			<g>
				<polygon class="st3" points="455.1,649.8 416.8,649.8 389.8,676.7 362.4,676.7 336.7,651.1 248,651.1 227.3,671.8 197.9,671.8 
					197.9,673.2 227.9,673.2 248.6,652.5 336.1,652.5 361.8,678.2 390.4,678.2 417.4,651.2 455.1,651.2 				"/>
			</g>
			<g>
				<polygon class="st3" points="251.4,631.1 191.2,631.1 180.6,641.7 137.1,641.7 137.1,643.1 181.2,643.1 191.8,632.5 
					250.8,632.5 287,668.6 342.2,668.6 367.4,693.8 434.2,693.8 445.5,682.6 456.6,682.6 456.6,681.1 444.9,681.1 433.6,692.4 
					368,692.4 342.8,667.2 287.6,667.2 				"/>
			</g>
			<g>
				<polygon class="st3" points="377.4,546.3 352.9,546.3 327.6,571.5 295.6,571.5 224.4,642.6 198.4,642.6 198.4,644 225,644 
					296.2,572.9 328.2,572.9 353.4,547.7 377.4,547.7 				"/>
			</g>
			<g>
				<polygon class="st3" points="407.6,625.1 371.9,625.1 357.5,639.5 278.9,639.5 278.9,642.3 358.6,642.3 373,628 406.5,628 
					424.8,646.3 456.6,646.3 456.6,643.5 425.9,643.5 				"/>
			</g>
			<g>
				<polygon class="st3" points="345.2,598.8 288.4,598.8 288.4,600.2 344.6,600.2 362.3,617.9 423.8,617.9 435.2,629.3 
					458.9,629.3 458.9,627.9 435.8,627.9 424.4,616.4 362.8,616.4 				"/>
			</g>
			<g>
				<polygon class="st3" points="385.5,572.7 360.4,572.7 306.6,626.5 271.8,626.5 246,600.7 161.5,600.7 147.1,586.3 126.7,586.3 
					126.7,589.1 145.9,589.1 160.3,603.5 244.9,603.5 270.7,629.3 307.8,629.3 361.5,575.5 384.4,575.5 395.9,587 458.5,587 
					458.5,584.2 397.1,584.2 				"/>
			</g>
			<g>
				<polygon class="st3" points="353,579.5 260.2,579.5 217.5,622.1 168.2,622.1 168.2,625 218.7,625 261.4,582.3 351.8,582.3 
					371.8,602.2 456.6,602.2 456.6,599.4 372.9,599.4 				"/>
			</g>
			<g>
				<polygon class="st3" points="158.1,569.6 126.7,569.6 126.7,570.9 157.6,570.9 178.5,591.9 238.8,591.9 238.8,590.5 
					179.1,590.5 				"/>
			</g>
			<g>
				<polygon class="st3" points="436.1,511.6 328.1,511.6 297.5,542.2 242.4,542.2 220.7,563.9 198.8,563.9 198.8,565.3 
					221.3,565.3 242.9,543.6 298.1,543.6 328.7,513 435.5,513 454.9,532.3 461.7,532.3 461.7,530.9 455.4,530.9 				"/>
			</g>
			<g>
				<polygon class="st3" points="418.2,473.9 327.2,473.9 317.8,483.3 268.2,483.3 203.7,547.9 116.7,547.9 103.6,534.9 
					102.7,535.9 116.1,549.3 204.3,549.3 268.9,484.8 318.3,484.8 327.7,475.3 417.6,475.3 424.7,482.4 460.3,482.4 460.3,481 
					425.3,481 				"/>
			</g>
			<g>
				<polygon class="st3" points="255.2,533.7 180.4,533.7 180.4,535.1 254.6,535.1 281.9,562.5 379.9,562.5 411,593.6 458.9,593.6 
					458.9,592.2 411.6,592.2 380.6,561.1 282.5,561.1 				"/>
			</g>
			<g>
				<path class="st3" d="M310.5,679.6c0-1.6-1.2-2.9-2.8-2.9c-1.5,0-2.8,1.3-2.8,2.9c0,1.6,1.3,2.8,2.8,2.8
					C309.2,682.4,310.5,681.1,310.5,679.6z"/>
			</g>
			<g>
				<path class="st3" d="M200.7,672.3c0-1.6-1.3-2.8-2.8-2.8c-1.6,0-2.8,1.2-2.8,2.8c0,1.6,1.3,2.8,2.8,2.8
					C199.4,675.1,200.7,673.9,200.7,672.3z"/>
			</g>
			<g>
				<path class="st3" d="M201.6,642.6c0-1.6-1.2-2.8-2.8-2.8c-1.6,0-2.8,1.3-2.8,2.8c0,1.6,1.3,2.8,2.8,2.8
					C200.4,645.4,201.6,644.1,201.6,642.6z"/>
			</g>
			<g>
				<path class="st3" d="M130,570.2c0-1.6-1.2-2.8-2.8-2.8c-1.6,0-2.8,1.2-2.8,2.8c0,1.6,1.2,2.8,2.8,2.8
					C128.8,573.1,130,571.8,130,570.2z"/>
			</g>
			<g>
				<path class="st3" d="M241.7,591.2c0-1.6-1.3-2.8-2.9-2.8c-1.6,0-2.8,1.3-2.8,2.8c0,1.6,1.2,2.9,2.8,2.9
					C240.4,594.1,241.7,592.8,241.7,591.2z"/>
			</g>
			<g>
				<path class="st3" d="M202.1,564.8c0-1.6-1.3-2.8-2.8-2.8c-1.6,0-2.8,1.2-2.8,2.8c0,1.6,1.3,2.9,2.8,2.9
					C200.8,567.7,202.1,566.4,202.1,564.8z"/>
			</g>
			<g>
				<path class="st3" d="M207.3,547.9c0-1.6-1.3-2.8-2.8-2.8c-1.6,0-2.9,1.2-2.9,2.8c0,1.6,1.3,2.8,2.9,2.8
					C206,550.7,207.3,549.4,207.3,547.9z"/>
			</g>
			<g>
				<path class="st3" d="M329.9,572.6c0-1.6-1.2-2.8-2.8-2.8c-1.6,0-2.8,1.2-2.8,2.8c0,1.5,1.2,2.8,2.8,2.8
					C328.7,575.4,329.9,574.1,329.9,572.6z"/>
			</g>
			<g>
				<path class="st3" d="M365.3,617.9c0-1.6-1.3-2.9-2.9-2.9c-1.6,0-2.8,1.3-2.8,2.9c0,1.5,1.3,2.8,2.8,2.8
					C364,620.7,365.3,619.4,365.3,617.9z"/>
			</g>
			<g>
				<path class="st3" d="M251.1,651.8c0-1.6-1.2-2.8-2.8-2.8c-1.6,0-2.8,1.2-2.8,2.8c0,1.5,1.2,2.8,2.8,2.8
					C249.8,654.6,251.1,653.3,251.1,651.8z"/>
			</g>
			<g>
				<path class="st3" d="M291.4,599.9c0-1.6-1.2-2.8-2.8-2.8c-1.6,0-2.8,1.2-2.8,2.8c0,1.6,1.2,2.9,2.8,2.9
					C290.2,602.8,291.4,601.5,291.4,599.9z"/>
			</g>
			<g>
				<path class="st3" d="M300.9,543c0-1.6-1.2-2.8-2.8-2.8c-1.6,0-2.8,1.3-2.8,2.8c0,1.6,1.3,2.9,2.8,2.9
					C299.7,545.9,300.9,544.6,300.9,543z"/>
			</g>
			<g>
				<path class="st3" d="M331.2,513c0-1.6-1.3-2.8-2.8-2.8c-1.6,0-2.9,1.2-2.9,2.8c0,1.6,1.3,2.8,2.9,2.8
					C330,515.8,331.2,514.6,331.2,513z"/>
			</g>
			<g>
				<path class="st3" d="M105.3,535.1c0-1.6-1.3-2.8-2.9-2.8c-1.6,0-2.8,1.2-2.8,2.8c0,1.6,1.3,2.9,2.8,2.9
					C104,538,105.3,536.7,105.3,535.1z"/>
			</g>
			<g>
				<path class="st3" d="M183.7,534.7c0-1.5-1.2-2.8-2.8-2.8c-1.6,0-2.8,1.3-2.8,2.8c0,1.6,1.2,2.9,2.8,2.9
					C182.5,537.5,183.7,536.2,183.7,534.7z"/>
			</g>
			<g>
				<path class="st3" d="M378.3,547.7c0-1.6-1.3-2.9-2.8-2.9c-1.6,0-2.8,1.3-2.8,2.9c0,1.5,1.3,2.8,2.8,2.8
					C377.1,550.5,378.3,549.2,378.3,547.7z"/>
			</g>
			<g>
				<path class="st3" d="M438.5,628.7c0-1.6-1.3-2.8-2.8-2.8c-1.6,0-2.8,1.2-2.8,2.8c0,1.6,1.2,2.8,2.8,2.8
					C437.3,631.5,438.5,630.3,438.5,628.7z"/>
			</g>
			<g>
				<path class="st3" d="M285.1,561.8c0-1.6-1.2-2.9-2.8-2.9c-1.6,0-2.8,1.3-2.8,2.9c0,1.6,1.3,2.8,2.8,2.8
					C283.8,564.5,285.1,563.3,285.1,561.8z"/>
			</g>
			<g>
				<path class="st3" d="M290.1,668c0-1.6-1.3-2.9-2.8-2.9c-1.6,0-2.9,1.3-2.9,2.9c0,1.5,1.3,2.8,2.9,2.8
					C288.8,670.8,290.1,669.5,290.1,668z"/>
			</g>
			<g>
				<path class="st3" d="M352.3,698.6c0-1.6-1.3-2.8-2.8-2.8c-1.6,0-2.8,1.2-2.8,2.8c0,1.6,1.3,2.9,2.8,2.9
					C351,701.5,352.3,700.2,352.3,698.6z"/>
			</g>
			<g>
				<path class="st3" d="M402,707c0-1.6-1.3-2.8-2.8-2.8c-1.5,0-2.8,1.2-2.8,2.8c0,1.6,1.3,2.8,2.8,2.8
					C400.7,709.8,402,708.5,402,707z"/>
			</g>
			<g>
				<path class="st3" d="M437.7,707c0-1.6-1.3-2.8-2.8-2.8c-1.6,0-2.8,1.2-2.8,2.8c0,1.6,1.2,2.8,2.8,2.8
					C436.4,709.8,437.7,708.5,437.7,707z"/>
			</g>
			<g>
				<path class="st3" d="M437,693.5c0-1.6-1.2-2.8-2.8-2.8c-1.5,0-2.8,1.3-2.8,2.8c0,1.6,1.3,2.8,2.8,2.8
					C435.7,696.4,437,695.1,437,693.5z"/>
			</g>
			<g>
				<path class="st3" d="M392.7,677.3c0-1.6-1.3-2.8-2.9-2.8c-1.6,0-2.8,1.2-2.8,2.8c0,1.6,1.2,2.9,2.8,2.9
					C391.4,680.1,392.7,678.8,392.7,677.3z"/>
			</g>
			<g>
				<path class="st3" d="M339.2,651.8c0-1.6-1.2-2.8-2.8-2.8s-2.8,1.2-2.8,2.8c0,1.5,1.3,2.8,2.8,2.8S339.2,653.3,339.2,651.8z"/>
			</g>
			<g>
				<path class="st3" d="M140.6,642.3c0-1.6-1.3-2.8-2.8-2.8c-1.6,0-2.8,1.3-2.8,2.8s1.2,2.8,2.8,2.8
					C139.4,645.2,140.6,643.9,140.6,642.3z"/>
			</g>
			<g>
				<circle class="st3" cx="168.4" cy="623.5" r="4"/>
			</g>
			<g>
				<path class="st3" d="M283.2,640.8c0-2.2-1.8-4-4-4c-2.2,0-4,1.8-4,4c0,2.2,1.8,4,4,4C281.4,644.8,283.2,643,283.2,640.8z"/>
			</g>
			<g>
				<path class="st3" d="M362.4,640.7c0-2.2-1.8-4-4-4c-2.2,0-4,1.8-4,4c0,2.2,1.8,4,4,4C360.6,644.7,362.4,642.9,362.4,640.7z"/>
			</g>
			<g>
				<path class="st3" d="M130.3,587.4c0-2.2-1.8-4-4-4c-2.2,0-4,1.8-4,4c0,2.2,1.8,4,4,4C128.5,591.5,130.3,589.7,130.3,587.4z"/>
			</g>
		</g>
		<g>
			<g>
				<polygon class="st3" points="324.3,667.9 304.3,667.9 304.3,669.1 323.7,669.1 340.2,685.9 376.8,685.9 383.8,692.9 
					415.6,692.9 434.3,674.2 433.4,673.4 415.1,691.7 384.3,691.7 377.3,684.7 340.7,684.7 				"/>
			</g>
			<g>
				<polygon class="st3" points="433,642.5 399.5,642.5 376,666 352,666 329.6,643.6 252.1,643.6 234,661.7 208.4,661.7 
					208.4,662.9 234.6,662.9 252.7,644.8 329.1,644.8 351.5,667.2 376.5,667.2 400.1,643.7 433,643.7 				"/>
			</g>
			<g>
				<polygon class="st3" points="255.1,626.1 202.6,626.1 193.3,635.3 155.3,635.3 155.3,636.5 193.8,636.5 203.1,627.3 
					254.6,627.3 286.2,658.9 334.4,658.9 356.4,680.9 414.7,680.9 424.6,671.1 434.2,671.1 434.2,669.8 424,669.8 414.2,679.6 
					356.9,679.6 335,657.6 286.7,657.6 				"/>
			</g>
			<g>
				<polygon class="st3" points="365.1,552 343.7,552 321.7,574 293.7,574 231.6,636.2 208.8,636.2 208.8,637.4 232.1,637.4 
					294.2,575.3 322.2,575.3 344.2,553.3 365.1,553.3 				"/>
			</g>
			<g>
				<polygon class="st3" points="391.6,620.9 360.3,620.9 347.8,633.5 279.1,633.5 279.1,636 348.8,636 361.3,623.4 390.6,623.4 
					406.5,639.3 434.2,639.3 434.2,636.9 407.5,636.9 				"/>
			</g>
			<g>
				<polygon class="st3" points="337,597.9 287.4,597.9 287.4,599.1 336.5,599.1 351.9,614.5 405.6,614.5 415.6,624.5 436.3,624.5 
					436.3,623.3 416.1,623.3 406.1,613.3 352.4,613.3 				"/>
			</g>
			<g>
				<polygon class="st3" points="372.2,575.1 350.3,575.1 303.3,622.1 272.9,622.1 250.5,599.6 176.6,599.6 164,587 146.2,587 
					146.2,589.5 163,589.5 175.6,602 249.4,602 272,624.5 304.3,624.5 351.3,577.6 371.2,577.6 381.2,587.6 435.9,587.6 
					435.9,585.2 382.3,585.2 				"/>
			</g>
			<g>
				<polygon class="st3" points="343.8,581 262.8,581 225.6,618.3 182.5,618.3 182.5,620.7 226.6,620.7 263.8,583.5 342.8,583.5 
					360.2,600.9 434.2,600.9 434.2,598.4 361.2,598.4 				"/>
			</g>
			<g>
				<polygon class="st3" points="173.7,572.4 146.2,572.4 146.2,573.6 173.2,573.6 191.5,591.9 244.2,591.9 244.2,590.7 192,590.7 
									"/>
			</g>
			<g>
				<polygon class="st3" points="416.4,521.8 322.1,521.8 295.4,548.5 247.2,548.5 228.3,567.5 209.2,567.5 209.2,568.7 
					228.8,568.7 247.7,549.7 295.9,549.7 322.6,523 415.9,523 432.8,539.9 438.7,539.9 438.7,538.6 433.3,538.6 				"/>
			</g>
			<g>
				<polygon class="st3" points="400.8,488.9 321.3,488.9 313,497.1 269.8,497.1 213.5,553.4 137.4,553.4 126.1,542.1 125.2,543 
					136.9,554.7 214,554.7 270.3,498.4 313.6,498.4 321.8,490.1 400.2,490.1 406.4,496.3 437.5,496.3 437.5,495 407,495 				"/>
			</g>
			<g>
				<polygon class="st3" points="258.4,541.1 193.2,541.1 193.2,542.4 257.9,542.4 281.7,566.2 367.3,566.2 394.5,593.4 
					436.3,593.4 436.3,592.1 395,592.1 367.9,565 282.3,565 				"/>
			</g>
			<g>
				<path class="st3" d="M306.7,668.5c0-1.4-1.1-2.5-2.4-2.5c-1.4,0-2.5,1.1-2.5,2.5c0,1.3,1.1,2.4,2.5,2.4
					C305.6,670.9,306.7,669.8,306.7,668.5z"/>
			</g>
			<g>
				<path class="st3" d="M210.8,662.1c0-1.4-1.1-2.5-2.5-2.5c-1.4,0-2.5,1.1-2.5,2.5c0,1.3,1.1,2.4,2.5,2.4
					C209.7,664.5,210.8,663.4,210.8,662.1z"/>
			</g>
			<g>
				<path class="st3" d="M211.7,636.2c0-1.4-1.1-2.5-2.5-2.5c-1.4,0-2.5,1.1-2.5,2.5c0,1.3,1.1,2.4,2.5,2.4
					C210.6,638.6,211.7,637.5,211.7,636.2z"/>
			</g>
			<g>
				<path class="st3" d="M149.1,573c0-1.3-1.1-2.5-2.5-2.5c-1.4,0-2.5,1.1-2.5,2.5c0,1.3,1.1,2.4,2.5,2.4
					C148,575.5,149.1,574.4,149.1,573z"/>
			</g>
			<g>
				<path class="st3" d="M246.6,591.3c0-1.3-1.1-2.5-2.5-2.5c-1.4,0-2.5,1.1-2.5,2.5c0,1.4,1.1,2.5,2.5,2.5
					C245.5,593.8,246.6,592.7,246.6,591.3z"/>
			</g>
			<g>
				<path class="st3" d="M212.1,568.2c0-1.3-1.1-2.4-2.5-2.4c-1.3,0-2.5,1.1-2.5,2.4c0,1.4,1.1,2.5,2.5,2.5
					C211,570.8,212.1,569.6,212.1,568.2z"/>
			</g>
			<g>
				<path class="st3" d="M216.6,553.4c0-1.3-1.1-2.4-2.5-2.4c-1.3,0-2.5,1.1-2.5,2.4c0,1.4,1.1,2.5,2.5,2.5
					C215.5,556,216.6,554.8,216.6,553.4z"/>
			</g>
			<g>
				<path class="st3" d="M323.7,575c0-1.3-1.1-2.4-2.5-2.4c-1.3,0-2.4,1.1-2.4,2.4c0,1.4,1.1,2.5,2.4,2.5
					C322.6,577.5,323.7,576.4,323.7,575z"/>
			</g>
			<g>
				<path class="st3" d="M354.6,614.5c0-1.3-1.1-2.4-2.5-2.4c-1.4,0-2.5,1.1-2.5,2.4c0,1.4,1.1,2.5,2.5,2.5
					C353.4,617,354.6,615.9,354.6,614.5z"/>
			</g>
			<g>
				<path class="st3" d="M254.9,644.2c0-1.3-1.1-2.5-2.5-2.5c-1.4,0-2.5,1.1-2.5,2.5c0,1.3,1.1,2.5,2.5,2.5
					C253.7,646.7,254.9,645.5,254.9,644.2z"/>
			</g>
			<g>
				<path class="st3" d="M290.1,598.9c0-1.3-1.1-2.5-2.5-2.5c-1.4,0-2.5,1.1-2.5,2.5c0,1.3,1.1,2.5,2.5,2.5
					C288.9,601.4,290.1,600.3,290.1,598.9z"/>
			</g>
			<g>
				<path class="st3" d="M298.4,549.2c0-1.3-1.1-2.4-2.5-2.4c-1.3,0-2.5,1.1-2.5,2.4c0,1.4,1.1,2.5,2.5,2.5
					C297.3,551.7,298.4,550.6,298.4,549.2z"/>
			</g>
			<g>
				<path class="st3" d="M324.8,523c0-1.3-1.1-2.4-2.5-2.4c-1.4,0-2.5,1.1-2.5,2.4c0,1.4,1.1,2.5,2.5,2.5
					C323.7,525.5,324.8,524.4,324.8,523z"/>
			</g>
			<g>
				<path class="st3" d="M127.6,542.4c0-1.4-1.1-2.5-2.5-2.5c-1.4,0-2.5,1.1-2.5,2.5s1.1,2.4,2.5,2.4
					C126.4,544.8,127.6,543.7,127.6,542.4z"/>
			</g>
			<g>
				<path class="st3" d="M196,541.9c0-1.3-1.1-2.5-2.5-2.5c-1.4,0-2.5,1.1-2.5,2.5c0,1.3,1.1,2.5,2.5,2.5
					C194.9,544.4,196,543.3,196,541.9z"/>
			</g>
			<g>
				<path class="st3" d="M366,553.3c0-1.4-1.1-2.5-2.5-2.5c-1.4,0-2.5,1.1-2.5,2.5c0,1.3,1.1,2.4,2.5,2.4
					C364.9,555.7,366,554.6,366,553.3z"/>
			</g>
			<g>
				<path class="st3" d="M418.5,624c0-1.4-1.1-2.5-2.5-2.5c-1.3,0-2.5,1.1-2.5,2.5c0,1.4,1.1,2.5,2.5,2.5
					C417.4,626.5,418.5,625.4,418.5,624z"/>
			</g>
			<g>
				<path class="st3" d="M284.5,565.6c0-1.3-1.1-2.5-2.4-2.5c-1.4,0-2.5,1.1-2.5,2.5c0,1.4,1.1,2.5,2.5,2.5
					C283.4,568,284.5,566.9,284.5,565.6z"/>
			</g>
			<g>
				<path class="st3" d="M288.9,658.3c0-1.3-1.1-2.4-2.5-2.4c-1.4,0-2.5,1.1-2.5,2.4c0,1.4,1.1,2.5,2.5,2.5
					C287.8,660.7,288.9,659.6,288.9,658.3z"/>
			</g>
			<g>
				<path class="st3" d="M343.2,685.1c0-1.4-1.1-2.5-2.5-2.5c-1.3,0-2.5,1.1-2.5,2.5c0,1.3,1.1,2.5,2.5,2.5
					C342.1,687.6,343.2,686.5,343.2,685.1z"/>
			</g>
			<g>
				<path class="st3" d="M386.6,692.4c0-1.3-1.1-2.5-2.5-2.5c-1.3,0-2.4,1.1-2.4,2.5c0,1.3,1.1,2.5,2.4,2.5
					C385.5,694.8,386.6,693.7,386.6,692.4z"/>
			</g>
			<g>
				<path class="st3" d="M417.8,692.4c0-1.3-1.1-2.5-2.5-2.5c-1.3,0-2.5,1.1-2.5,2.5c0,1.3,1.1,2.5,2.5,2.5
					C416.7,694.8,417.8,693.7,417.8,692.4z"/>
			</g>
			<g>
				<path class="st3" d="M417.2,680.6c0-1.3-1.1-2.5-2.5-2.5c-1.4,0-2.5,1.1-2.5,2.5c0,1.4,1.1,2.5,2.5,2.5
					C416.1,683.1,417.2,682,417.2,680.6z"/>
			</g>
			<g>
				<path class="st3" d="M378.4,666.4c0-1.4-1.1-2.4-2.5-2.4c-1.3,0-2.5,1.1-2.5,2.4c0,1.4,1.1,2.5,2.5,2.5
					C377.3,668.9,378.4,667.8,378.4,666.4z"/>
			</g>
			<g>
				<path class="st3" d="M331.8,644.2c0-1.3-1.1-2.5-2.5-2.5c-1.3,0-2.5,1.1-2.5,2.5c0,1.3,1.1,2.5,2.5,2.5
					C330.7,646.7,331.8,645.5,331.8,644.2z"/>
			</g>
			<g>
				<path class="st3" d="M158.4,636c0-1.4-1.1-2.5-2.5-2.5c-1.4,0-2.5,1.1-2.5,2.5c0,1.3,1.1,2.5,2.5,2.5
					C157.3,638.4,158.4,637.3,158.4,636z"/>
			</g>
			<g>
				<path class="st3" d="M186.2,619.5c0-1.9-1.6-3.5-3.5-3.5s-3.5,1.6-3.5,3.5s1.6,3.5,3.5,3.5S186.2,621.4,186.2,619.5z"/>
			</g>
			<g>
				<path class="st3" d="M282.9,634.6c0-1.9-1.6-3.5-3.5-3.5c-1.9,0-3.5,1.6-3.5,3.5c0,1.9,1.6,3.5,3.5,3.5
					C281.3,638.1,282.9,636.5,282.9,634.6z"/>
			</g>
			<g>
				<path class="st3" d="M352,634.5c0-2-1.6-3.5-3.5-3.5c-1.9,0-3.5,1.6-3.5,3.5c0,1.9,1.6,3.5,3.5,3.5
					C350.5,638,352,636.4,352,634.5z"/>
			</g>
			<g>
				<path class="st3" d="M149.3,588c0-1.9-1.6-3.4-3.5-3.4c-1.9,0-3.5,1.6-3.5,3.4c0,2,1.6,3.5,3.5,3.5
					C147.8,591.5,149.3,590,149.3,588z"/>
			</g>
		</g>
	</g>
</g>
<g>
	<g class="st6">
		<g>
			<path class="st3" d="M422.1,815c-60,0-116.4-23.3-158.8-65.7c-42.4-42.4-65.8-98.8-65.8-158.8c0-60,23.4-116.4,65.8-158.8
				l1.3,1.3c-42,42-65.2,97.9-65.2,157.4c0,59.5,23.2,115.4,65.2,157.4c42.1,42.1,98,65.2,157.4,65.2c59.4,0,115.4-23.1,157.4-65.2
				c42-42.1,65.2-97.9,65.2-157.4c0-59.5-23.2-115.4-65.2-157.4l1.3-1.3c42.5,42.4,65.8,98.8,65.8,158.8c0,60-23.3,116.4-65.8,158.8
				C538.4,791.7,482.1,815,422.1,815z"/>
		</g>
		<g>
			<path class="st3" d="M422.1,782.8c-51.4,0-99.7-20-136-56.4c-36.3-36.3-56.3-84.6-56.3-136h2c0,50.9,19.8,98.7,55.7,134.6
				c36,36,83.8,55.8,134.6,55.8c50.9,0,98.7-19.8,134.6-55.8c36-35.9,55.8-83.8,55.8-134.6c0-50.9-19.8-98.6-55.8-134.6
				c-35.9-36-83.7-55.8-134.6-55.8v-1.9c51.4,0,99.7,20,136,56.3c36.3,36.3,56.3,84.6,56.3,136c0,51.4-20,99.7-56.3,136
				C521.7,762.7,473.5,782.8,422.1,782.8z"/>
		</g>
		<g>
			<path class="st3" d="M534.1,702.5l-1.4-1.3c29.6-29.6,45.9-68.9,45.9-110.7c0-41.8-16.3-81.1-45.9-110.7
				c-29.5-29.6-68.8-45.8-110.7-45.8c-41.8,0-81.1,16.3-110.7,45.8c-29.6,29.6-45.9,68.9-45.9,110.7c0,41.8,16.3,81.1,45.9,110.7
				l-1.4,1.3c-29.9-29.9-46.4-69.7-46.4-112.1c0-42.4,16.5-82.1,46.4-112C340,448.5,379.8,432,422.1,432s82.1,16.5,112.1,46.4
				c30,29.9,46.4,69.7,46.4,112C580.6,632.8,564.1,672.6,534.1,702.5z"/>
		</g>
		<g>
			<path class="st3" d="M422.1,720.1c-34.6,0-67.2-13.4-91.7-38c-24.5-24.5-37.9-57.1-37.9-91.7c0-34.6,13.5-67.2,37.9-91.7l1.4,1.4
				c-24.1,24.1-37.4,56.1-37.4,90.3c0,34.1,13.3,66.2,37.4,90.4c24.1,24.1,56.2,37.4,90.4,37.4c34.1,0,66.2-13.3,90.4-37.4
				c24.1-24.1,37.4-56.3,37.4-90.4c0-34.2-13.3-66.2-37.4-90.3l1.3-1.4c24.5,24.5,38,57.1,38,91.7c0,34.6-13.5,67.2-38,91.7
				C489.3,706.7,456.7,720.1,422.1,720.1z"/>
		</g>
		<g>
			<path class="st3" d="M422.1,687.5c-25.9,0-50.3-10.2-68.6-28.5c-18.3-18.3-28.4-42.6-28.4-68.6c0-25.9,10.1-50.3,28.4-68.6
				c18.4-18.4,42.7-28.5,68.6-28.5s50.3,10.1,68.6,28.5l-1.3,1.4c-18-18-41.9-27.9-67.3-27.9s-49.3,9.9-67.3,27.9
				c-18,17.9-27.9,41.8-27.9,67.2s9.9,49.3,27.9,67.2c18,18,41.9,27.9,67.3,27.9s49.3-9.9,67.3-27.9l1.3,1.3
				C472.3,677.4,448,687.5,422.1,687.5z"/>
		</g>
		<path class="st3" d="M271,431.7c0,4.2-3.5,7.7-7.7,7.7c-4.3,0-7.7-3.5-7.7-7.7c0-4.3,3.5-7.7,7.7-7.7
			C267.6,423.9,271,427.4,271,431.7z"/>
		<path class="st3" d="M239.3,590.4c0,4.3-3.4,7.7-7.7,7.7c-4.2,0-7.7-3.5-7.7-7.7c0-4.3,3.5-7.7,7.7-7.7
			C235.9,582.7,239.3,586.2,239.3,590.4z"/>
		<path class="st3" d="M317.9,701c0,4.2-3.5,7.7-7.7,7.7c-4.3,0-7.7-3.5-7.7-7.7c0-4.3,3.5-7.7,7.7-7.7
			C314.4,693.3,317.9,696.7,317.9,701z"/>
		<path class="st3" d="M542.6,700.4c0,4.2-3.5,7.7-7.7,7.7c-4.3,0-7.7-3.5-7.7-7.7c0-4.3,3.5-7.7,7.7-7.7
			C539.2,692.7,542.6,696.2,542.6,700.4z"/>
		<path class="st3" d="M496.9,659.4c0,4.2-3.5,7.7-7.7,7.7c-4.3,0-7.7-3.5-7.7-7.7c0-4.3,3.4-7.7,7.7-7.7
			C493.4,651.6,496.9,655.1,496.9,659.4z"/>
		<path class="st3" d="M337.9,500.4c0,4.3-3.4,7.7-7.7,7.7c-4.2,0-7.7-3.5-7.7-7.7c0-4.2,3.4-7.7,7.7-7.7
			C334.5,492.8,337.9,496.2,337.9,500.4z"/>
		<path class="st3" d="M431.5,400c0,4.2-3.4,7.7-7.7,7.7c-4.3,0-7.7-3.4-7.7-7.7c0-4.3,3.4-7.7,7.7-7.7
			C428,392.3,431.5,395.7,431.5,400z"/>
		<path class="st3" d="M586.7,432.6c0,4.2-3.4,7.7-7.7,7.7c-4.3,0-7.7-3.4-7.7-7.7c0-4.3,3.5-7.7,7.7-7.7
			C583.3,424.9,586.7,428.3,586.7,432.6z"/>
		<path class="st3" d="M519.7,499.7c0,4.2-3.5,7.7-7.7,7.7c-4.2,0-7.7-3.5-7.7-7.7c0-4.3,3.4-7.8,7.7-7.8
			C516.2,491.9,519.7,495.4,519.7,499.7z"/>
		<path class="st3" d="M497.9,522c0,4.3-3.4,7.7-7.7,7.7c-4.3,0-7.7-3.4-7.7-7.7c0-4.2,3.4-7.7,7.7-7.7
			C494.5,514.4,497.9,517.8,497.9,522z"/>
	</g>
	<g class="st6">
		<g>
			<path class="st3" d="M422.1,842.4c-67.7,0-131.5-26.4-179.4-74.3c-47.9-47.9-74.3-111.6-74.3-179.4c0-67.8,26.4-131.5,74.3-179.4
				l1.5,1.5c-47.5,47.5-73.6,110.6-73.6,177.8c0,67.2,26.2,130.3,73.6,177.8c47.5,47.5,110.7,73.6,177.9,73.6
				c67.2,0,130.3-26.1,177.9-73.6c47.5-47.5,73.6-110.6,73.6-177.8c0-67.2-26.1-130.4-73.6-177.8l1.5-1.5
				c47.9,47.9,74.3,111.6,74.3,179.4c0,67.8-26.4,131.5-74.3,179.4C553.6,816,489.9,842.4,422.1,842.4z"/>
		</g>
		<g>
			<path class="st3" d="M422.1,806c-58,0-112.6-22.6-153.6-63.7c-41-41-63.7-95.6-63.7-153.6h2.2c0,57.5,22.4,111.6,63,152.1
				c40.6,40.6,94.7,63,152.1,63c57.5,0,111.5-22.4,152.1-63c40.6-40.6,63-94.6,63-152.1c0-57.5-22.3-111.4-63-152.1
				c-40.6-40.6-94.6-63-152.1-63v-2.2c58.1,0,112.6,22.6,153.6,63.7c41,41,63.6,95.6,63.6,153.6c0,58.1-22.6,112.6-63.6,153.6
				C534.7,783.4,480.2,806,422.1,806z"/>
		</g>
		<g>
			<path class="st3" d="M548.7,715.3l-1.5-1.5C580.5,680.4,599,636,599,588.7c0-47.3-18.5-91.7-51.8-125.1
				c-33.4-33.4-77.8-51.8-125.1-51.8s-91.7,18.4-125,51.8c-33.4,33.4-51.8,77.8-51.8,125.1c0,47.2,18.4,91.6,51.8,125.1l-1.5,1.5
				c-33.8-33.8-52.4-78.8-52.4-126.6c0-47.8,18.6-92.8,52.4-126.6c33.8-33.8,78.8-52.4,126.6-52.4c47.8,0,92.8,18.7,126.6,52.4
				c33.8,33.8,52.4,78.7,52.4,126.6C601.1,636.5,582.5,681.5,548.7,715.3z"/>
		</g>
		<g>
			<path class="st3" d="M422.1,735.2c-39.1,0-75.9-15.2-103.6-42.9c-27.6-27.7-42.8-64.5-42.8-103.6c0-39.1,15.2-75.9,42.8-103.6
				l1.6,1.6c-27.3,27.2-42.3,63.4-42.3,102c0,38.6,15,74.8,42.3,102.1c27.3,27.2,63.5,42.2,102.1,42.2c38.6,0,74.8-15,102.1-42.2
				c27.3-27.3,42.3-63.5,42.3-102.1c0-38.6-15-74.8-42.3-102l1.6-1.6c27.7,27.6,42.9,64.5,42.9,103.6c0,39.1-15.2,75.9-42.9,103.6
				C498,720.1,461.2,735.2,422.1,735.2z"/>
		</g>
		<g>
			<path class="st3" d="M422.1,698.4c-29.3,0-56.8-11.5-77.5-32.2c-20.7-20.7-32.1-48.2-32.1-77.5c0-29.3,11.4-56.8,32.1-77.5
				c20.8-20.8,48.2-32.1,77.5-32.1c29.3,0,56.8,11.4,77.6,32.1l-1.6,1.6c-20.3-20.3-47.3-31.5-76-31.5c-28.7,0-55.7,11.2-76,31.5
				c-20.3,20.3-31.5,47.3-31.5,75.9c0,28.7,11.2,55.7,31.5,76c20.3,20.4,47.3,31.5,76,31.5c28.7,0,55.7-11.2,76-31.5l1.6,1.5
				C478.9,687,451.4,698.4,422.1,698.4z"/>
		</g>
		<path class="st3" d="M251.4,409.4c0,4.8-3.9,8.7-8.7,8.7c-4.8,0-8.7-3.9-8.7-8.7c0-4.8,3.9-8.8,8.7-8.8
			C247.5,400.6,251.4,404.5,251.4,409.4z"/>
		<path class="st3" d="M215.6,588.7c0,4.8-3.9,8.7-8.7,8.7c-4.8,0-8.7-3.9-8.7-8.7c0-4.8,3.9-8.7,8.7-8.7
			C211.7,580,215.6,583.9,215.6,588.7z"/>
		<path class="st3" d="M304.3,713.7c0,4.8-3.9,8.7-8.7,8.7c-4.8,0-8.7-3.9-8.7-8.7c0-4.9,3.9-8.7,8.7-8.7
			C300.4,704.9,304.3,708.8,304.3,713.7z"/>
		<path class="st3" d="M558.3,713c0,4.7-3.9,8.7-8.7,8.7c-4.8,0-8.8-3.9-8.8-8.7c0-4.8,3.9-8.8,8.8-8.8
			C554.4,704.2,558.3,708.2,558.3,713z"/>
		<path class="st3" d="M506.6,666.6c0,4.7-3.9,8.7-8.7,8.7c-4.8,0-8.7-3.9-8.7-8.7c0-4.9,3.9-8.8,8.7-8.8
			C502.7,657.8,506.6,661.8,506.6,666.6z"/>
		<path class="st3" d="M327,487c0,4.8-3.9,8.7-8.7,8.7c-4.8,0-8.7-3.9-8.7-8.7c0-4.7,3.9-8.6,8.7-8.6C323.1,478.4,327,482.3,327,487
			z"/>
		<path class="st3" d="M432.7,373.6c0,4.8-3.9,8.6-8.7,8.6c-4.9,0-8.7-3.9-8.7-8.6c0-4.9,3.9-8.8,8.7-8.8
			C428.8,364.8,432.7,368.7,432.7,373.6z"/>
		<path class="st3" d="M608.1,410.4c0,4.8-3.9,8.6-8.7,8.6c-4.8,0-8.7-3.9-8.7-8.6c0-4.8,3.9-8.7,8.7-8.7
			C604.3,401.7,608.1,405.6,608.1,410.4z"/>
		<path class="st3" d="M532.4,486.2c0,4.8-3.9,8.7-8.7,8.7c-4.8,0-8.7-3.9-8.7-8.7c0-4.9,3.9-8.8,8.7-8.8
			C528.5,477.4,532.4,481.3,532.4,486.2z"/>
		<path class="st3" d="M507.7,511.4c0,4.8-3.9,8.7-8.7,8.7c-4.9,0-8.8-3.9-8.8-8.7c0-4.8,3.9-8.7,8.8-8.7
			C503.9,502.8,507.7,506.6,507.7,511.4z"/>
	</g>
	<g>
		<g>
			<radialGradient id="SVGID_5_" cx="499.4996" cy="470.4227" r="407.3508" gradientUnits="userSpaceOnUse">
				<stop  offset="0" style="stop-color:#FFFFFF"/>
				<stop  offset="0.1775" style="stop-color:#FBFAFA"/>
				<stop  offset="0.381" style="stop-color:#ECEBEC"/>
				<stop  offset="0.5971" style="stop-color:#D5D4D4"/>
				<stop  offset="0.8206" style="stop-color:#B7B5B5"/>
				<stop  offset="1" style="stop-color:#9A9999"/>
			</radialGradient>
			<path class="st7" d="M581.4,584.8c0,88-71.3,159.3-159.2,159.3c-88,0-159.3-71.4-159.3-159.3c0-88.1,71.3-159.4,159.3-159.4
				C510.1,425.4,581.4,496.7,581.4,584.8z"/>
			<radialGradient id="SVGID_6_" cx="305.5707" cy="706.5673" r="472.6894" gradientUnits="userSpaceOnUse">
				<stop  offset="0" style="stop-color:#FFFFFF"/>
				<stop  offset="0.2493" style="stop-color:#FCFCFC"/>
				<stop  offset="0.4364" style="stop-color:#F3F2F2"/>
				<stop  offset="0.6031" style="stop-color:#E2E1E1"/>
				<stop  offset="0.758" style="stop-color:#CCCACA"/>
				<stop  offset="0.9033" style="stop-color:#B0AFAF"/>
				<stop  offset="1" style="stop-color:#9A9999"/>
			</radialGradient>
			<path class="st8" d="M265.2,584.8c0,86.6,70.2,157,156.9,157c86.6,0,157-70.4,157-157c0-86.6-70.3-156.9-157-156.9
				C335.4,427.9,265.2,498.1,265.2,584.8z"/>
		</g>
	</g>
	<g>
		<path d="M313.1,596.4v-31.6c0-1.2,0.6-1.8,1.8-1.8s1.8,0.6,1.8,1.8v12.3h14v-12.3c0-1.2,0.6-1.8,1.8-1.8s1.8,0.6,1.8,1.8v31.6
			c0,1.2-0.6,1.8-1.8,1.8s-1.8-0.6-1.8-1.8v-15.8h-14v15.8c0,1.2-0.6,1.8-1.8,1.8S313.1,597.6,313.1,596.4z"/>
		<path d="M365.8,596.4c0,1.2-0.6,1.8-1.8,1.8c-0.9,0-1.4-0.4-1.7-1.2l-2.5-7.6h-12.7l-2.5,7.6c-0.3,0.8-0.8,1.2-1.7,1.2
			c-1.2,0-1.8-0.6-1.8-1.8c0-0.2,0-0.4,0.1-0.6l10.5-31.4c0.3-0.9,0.9-1.4,1.8-1.4c0.9,0,1.4,0.5,1.7,1.4l10.5,31.4
			C365.8,596,365.8,596.2,365.8,596.4z M353.5,570.4l-5.2,15.5h10.3L353.5,570.4z"/>
		<path d="M388.6,563c1.2,0,1.8,0.6,1.8,1.8s-0.6,1.8-1.8,1.8h-7c-1.5,0-2.7,0.5-3.7,1.5c-1,1-1.5,2.3-1.5,3.7v17.6
			c0,1.5,0.5,2.7,1.5,3.7c1,1,2.3,1.5,3.7,1.5h7c1.2,0,1.8,0.6,1.8,1.8c0,1.2-0.6,1.8-1.8,1.8h-7c-2.4,0-4.5-0.9-6.2-2.6
			c-1.7-1.7-2.6-3.8-2.6-6.2v-17.6c0-2.4,0.9-4.5,2.6-6.2c1.7-1.7,3.8-2.6,6.2-2.6H388.6z"/>
		<path d="M405.5,579.8l-4.5,5v11.6c0,1.2-0.6,1.8-1.8,1.8s-1.8-0.6-1.8-1.8v-31.6c0-1.2,0.6-1.8,1.8-1.8s1.8,0.6,1.8,1.8v14.8
			l14.5-15.9c0.4-0.4,0.8-0.6,1.3-0.6c1.2,0,1.8,0.6,1.8,1.8c0,0.4-0.2,0.8-0.5,1.2l-10,11l10.3,18.5c0.2,0.3,0.2,0.6,0.2,0.9
			c0,0.4-0.2,0.8-0.5,1.2c-0.4,0.4-0.8,0.5-1.2,0.5c-0.7,0-1.2-0.3-1.6-0.9L405.5,579.8z"/>
		<path class="st9" d="M425.5,596.4v-31.6c0-1.2,0.6-1.8,1.8-1.8h14c1.2,0,1.8,0.6,1.8,1.8s-0.6,1.8-1.8,1.8H429v10.5h8.8
			c1.2,0,1.8,0.6,1.8,1.8s-0.6,1.8-1.8,1.8H429v14h12.3c1.2,0,1.8,0.6,1.8,1.8c0,1.2-0.6,1.8-1.8,1.8h-14
			C426.1,598.2,425.5,597.6,425.5,596.4z"/>
		<path class="st9" d="M472.9,563c1.2,0,1.8,0.6,1.8,1.8v31.6c0,1.2-0.6,1.8-1.8,1.8c-1.2,0-1.8-0.6-1.8-1.8v-25.8l-7.2,10.7
			c-0.5,0.7-1,1.1-1.6,1.1c-0.6,0-1.2-0.4-1.6-1.1l-7.1-10.7v25.8c0,1.2-0.6,1.8-1.8,1.8c-1.2,0-1.8-0.6-1.8-1.8v-31.6
			c0-1.2,0.6-1.8,1.8-1.8c0.6,0,1.2,0.3,1.5,0.9l9,13.5l9-13.6C471.7,563.3,472.2,563,472.9,563z"/>
		<path class="st9" d="M481.7,564.8c0-1.2,0.6-1.8,1.8-1.8H501c1.2,0,1.8,0.6,1.8,1.8s-0.6,1.8-1.8,1.8h-7v29.8
			c0,1.2-0.6,1.8-1.8,1.8c-1.2,0-1.8-0.6-1.8-1.8v-29.8h-7C482.3,566.6,481.7,566,481.7,564.8z"/>
		<path class="st9" d="M530.8,564.8v22.8c0,2.9-1,5.4-3.1,7.4c-2.1,2.1-4.5,3.1-7.4,3.1c-2.9,0-5.4-1-7.4-3.1
			c-2.1-2.1-3.1-4.5-3.1-7.4v-22.8c0-1.2,0.6-1.8,1.8-1.8c1.2,0,1.8,0.6,1.8,1.8v22.8c0,2,0.7,3.6,2,5c1.4,1.4,3,2,5,2
			c2,0,3.6-0.7,5-2c1.4-1.4,2-3,2-5v-22.8c0-1.2,0.6-1.8,1.8-1.8S530.8,563.6,530.8,564.8z"/>
	</g>
</g>
</svg>
